<svg xmlns="http://www.w3.org/2000/svg" width="768" height="318" viewBox="0 0 768 318"><style>path { stroke-linejoin: round; stroke-linecap: round; fill-rule: evenodd; }use { stroke: none; }#Background { stroke: none; fill: #999; }.c0 { fill: #999; }.c1 { fill: white; }.c2 { fill: #222; }</style><defs><path id="O" d="M0 0l20,0l4.4504,19.4986l-18.0194,8.6777l12.4698,15.6366l-12.4698,15.6366l18.0194,8.6777l-4.4504,19.4986l-20,0l-20,0l4.4504,-19.4986l-18.0194,-8.6777l12.4698,-15.6366l-12.4698,-15.6366l18.0194,-8.6777l-4.4504,-19.4986l20,0Z"/><path id="Pa" d="M0 0l20,0l4.4504,19.4986l-18.0194,8.6777l12.4698,15.6366l-12.4698,15.6366l18.0194,8.6777l-4.4504,19.4986l-20,0l4.4504,-19.4986l-18.0194,-8.6777l12.4698,-15.6366l-12.4698,-15.6366l18.0194,-8.6777l-4.4504,-19.4986l-20,0l20,0Z"/><path id="Pb" d="M0 0l20,0l4.4504,19.4986l-18.0194,8.6777l12.4698,15.6366l-12.4698,15.6366l18.0194,8.6777l-4.4504,19.4986l-20,0l-20,0l20,0l4.4504,-19.4986l-18.0194,-8.6777l12.4698,-15.6366l-12.4698,-15.6366l18.0194,-8.6777l-4.4504,-19.4986Z"/><path id="Xa" d="M0 0l4.4504,19.4986l-18.0194,8.6777l12.4698,15.6366l-12.4698,15.6366l18.0194,8.6777l-4.4504,19.4986l20,0l-20,0l-20,0l4.4504,-19.4986l-18.0194,-8.6777l12.4698,-15.6366l-12.4698,-15.6366l18.0194,-8.6777l-4.4504,-19.4986l20,0Z"/><path id="Xb" d="M0 0l20,0l-20,0l4.4504,19.4986l-18.0194,8.6777l12.4698,15.6366l-12.4698,15.6366l18.0194,8.6777l-4.4504,19.4986l-20,0l4.4504,-19.4986l-18.0194,-8.6777l12.4698,-15.6366l-12.4698,-15.6366l18.0194,-8.6777l-4.4504,-19.4986l20,0Z"/><path id="Ma" d="M0 0l20,0l4.4504,19.4986l-18.0194,8.6777l12.4698,15.6366l-12.4698,15.6366l18.0194,8.6777l-4.4504,19.4986l-20,0l4.4504,-19.4986l-18.0194,-8.6777l12.4698,-15.6366l-12.4698,-15.6366l18.0194,-8.6777l-4.4504,-19.4986Z"/><path id="Mb" d="M0 0l4.4504,19.4986l-18.0194,8.6777l12.4698,15.6366l-12.4698,15.6366l18.0194,8.6777l-4.4504,19.4986l-20,0l4.4504,-19.4986l-18.0194,-8.6777l12.4698,-15.6366l-12.4698,-15.6366l18.0194,-8.6777l-4.4504,-19.4986l20,0Z"/><path id="A" d="M0 0a16.0388,16.0388 0 0 1 20,0a16.0388,16.0388 0 0 1 4.4504,19.4986a16.0388,16.0388 0 0 1 -18.0194,8.6777a16.0388,16.0388 0 0 1 12.4698,15.6366a16.0388,16.0388 0 0 1 -12.4698,15.6366a16.0388,16.0388 0 0 1 18.0194,8.6777a16.0388,16.0388 0 0 1 -4.4504,19.4986a16.0388,16.0388 0 0 1 -20,0a16.0388,16.0388 0 0 0 -20,0a16.0388,16.0388 0 0 0 4.4504,-19.4986a16.0388,16.0388 0 0 0 -18.0194,-8.6777a16.0388,16.0388 0 0 0 12.4698,-15.6366a16.0388,16.0388 0 0 0 -12.4698,-15.6366a16.0388,16.0388 0 0 0 18.0194,-8.6777a16.0388,16.0388 0 0 0 -4.4504,-19.4986a16.0388,16.0388 0 0 0 20,0Z"/><path id="APa" d="M0 0a16.0388,16.0388 0 0 1 20,0a16.0388,16.0388 0 0 1 4.4504,19.4986a16.0388,16.0388 0 0 1 -18.0194,8.6777a16.0388,16.0388 0 0 1 12.4698,15.6366a16.0388,16.0388 0 0 1 -12.4698,15.6366a16.0388,16.0388 0 0 1 18.0194,8.6777a16.0388,16.0388 0 0 1 -4.4504,19.4986a16.0388,16.0388 0 0 1 -20,0a16.0388,16.0388 0 0 0 4.4504,-19.4986a16.0388,16.0388 0 0 0 -18.0194,-8.6777a16.0388,16.0388 0 0 0 12.4698,-15.6366a16.0388,16.0388 0 0 0 -12.4698,-15.6366a16.0388,16.0388 0 0 0 18.0194,-8.6777a16.0388,16.0388 0 0 0 -4.4504,-19.4986a16.0388,16.0388 0 0 0 -20,0a16.0388,16.0388 0 0 0 20,0Z"/><path id="APb" d="M0 0a16.0388,16.0388 0 0 1 20,0a16.0388,16.0388 0 0 1 4.4504,19.4986a16.0388,16.0388 0 0 1 -18.0194,8.6777a16.0388,16.0388 0 0 1 12.4698,15.6366a16.0388,16.0388 0 0 1 -12.4698,15.6366a16.0388,16.0388 0 0 1 18.0194,8.6777a16.0388,16.0388 0 0 1 -4.4504,19.4986a16.0388,16.0388 0 0 1 -20,0a16.0388,16.0388 0 0 0 -20,0a16.0388,16.0388 0 0 0 20,0a16.0388,16.0388 0 0 0 4.4504,-19.4986a16.0388,16.0388 0 0 0 -18.0194,-8.6777a16.0388,16.0388 0 0 0 12.4698,-15.6366a16.0388,16.0388 0 0 0 -12.4698,-15.6366a16.0388,16.0388 0 0 0 18.0194,-8.6777a16.0388,16.0388 0 0 0 -4.4504,-19.4986Z"/><path id="AXa" d="M0 0a16.0388,16.0388 0 0 1 4.4504,19.4986a16.0388,16.0388 0 0 1 -18.0194,8.6777a16.0388,16.0388 0 0 1 12.4698,15.6366a16.0388,16.0388 0 0 1 -12.4698,15.6366a16.0388,16.0388 0 0 1 18.0194,8.6777a16.0388,16.0388 0 0 1 -4.4504,19.4986a16.0388,16.0388 0 0 1 20,0a16.0388,16.0388 0 0 1 -20,0a16.0388,16.0388 0 0 0 -20,0a16.0388,16.0388 0 0 0 4.4504,-19.4986a16.0388,16.0388 0 0 0 -18.0194,-8.6777a16.0388,16.0388 0 0 0 12.4698,-15.6366a16.0388,16.0388 0 0 0 -12.4698,-15.6366a16.0388,16.0388 0 0 0 18.0194,-8.6777a16.0388,16.0388 0 0 0 -4.4504,-19.4986a16.0388,16.0388 0 0 0 20,0Z"/><path id="AXb" d="M0 0a16.0388,16.0388 0 0 1 20,0a16.0388,16.0388 0 0 1 -20,0a16.0388,16.0388 0 0 1 4.4504,19.4986a16.0388,16.0388 0 0 1 -18.0194,8.6777a16.0388,16.0388 0 0 1 12.4698,15.6366a16.0388,16.0388 0 0 1 -12.4698,15.6366a16.0388,16.0388 0 0 1 18.0194,8.6777a16.0388,16.0388 0 0 1 -4.4504,19.4986a16.0388,16.0388 0 0 0 -20,0a16.0388,16.0388 0 0 0 4.4504,-19.4986a16.0388,16.0388 0 0 0 -18.0194,-8.6777a16.0388,16.0388 0 0 0 12.4698,-15.6366a16.0388,16.0388 0 0 0 -12.4698,-15.6366a16.0388,16.0388 0 0 0 18.0194,-8.6777a16.0388,16.0388 0 0 0 -4.4504,-19.4986a16.0388,16.0388 0 0 0 20,0Z"/><path id="AMa" d="M0 0a16.0388,16.0388 0 0 1 20,0a16.0388,16.0388 0 0 1 4.4504,19.4986a16.0388,16.0388 0 0 1 -18.0194,8.6777a16.0388,16.0388 0 0 1 12.4698,15.6366a16.0388,16.0388 0 0 1 -12.4698,15.6366a16.0388,16.0388 0 0 1 18.0194,8.6777a16.0388,16.0388 0 0 1 -4.4504,19.4986a16.0388,16.0388 0 0 0 -20,0a16.0388,16.0388 0 0 0 4.4504,-19.4986a16.0388,16.0388 0 0 0 -18.0194,-8.6777a16.0388,16.0388 0 0 0 12.4698,-15.6366a16.0388,16.0388 0 0 0 -12.4698,-15.6366a16.0388,16.0388 0 0 0 18.0194,-8.6777a16.0388,16.0388 0 0 0 -4.4504,-19.4986Z"/><path id="AMb" d="M0 0a16.0388,16.0388 0 0 1 4.4504,19.4986a16.0388,16.0388 0 0 1 -18.0194,8.6777a16.0388,16.0388 0 0 1 12.4698,15.6366a16.0388,16.0388 0 0 1 -12.4698,15.6366a16.0388,16.0388 0 0 1 18.0194,8.6777a16.0388,16.0388 0 0 1 -4.4504,19.4986a16.0388,16.0388 0 0 1 -20,0a16.0388,16.0388 0 0 0 4.4504,-19.4986a16.0388,16.0388 0 0 0 -18.0194,-8.6777a16.0388,16.0388 0 0 0 12.4698,-15.6366a16.0388,16.0388 0 0 0 -12.4698,-15.6366a16.0388,16.0388 0 0 0 18.0194,-8.6777a16.0388,16.0388 0 0 0 -4.4504,-19.4986a16.0388,16.0388 0 0 0 20,0Z"/></defs><rect id="Background" x="-1" y="-1" width="770" height="320"/><g transform="translate(384 159) scale(1 -1)"><g id="Wedges"><g><g transform="translate(0,0) rotate(0)"><use href="#O" class="c0" data-layer="0" transform="translate(0,0)"/></g><g transform="translate(0,0) rotate(0)"><use href="#O" class="c1" data-layer="1" transform="translate(20,87.6257)"/><use href="#O" class="c2" data-layer="1" transform="translate(-20,87.6257)"/></g><g transform="translate(0,0) rotate(0)"><use href="#O" class="c2" data-layer="2" transform="translate(40,175.2515)"/><use href="#O" class="c0" data-layer="2" transform="translate(0,175.2515)"/><use href="#O" class="c1" data-layer="2" transform="translate(-40,175.2515)"/></g><g transform="translate(0,0) rotate(0)"><use href="#O" class="c0" data-layer="3" transform="translate(60,262.8772)"/><use href="#O" class="c1" data-layer="3" transform="translate(20,262.8772)"/><use href="#O" class="c2" data-layer="3" transform="translate(-20,262.8772)"/><use href="#O" class="c0" data-layer="3" transform="translate(-60,262.8772)"/></g><g transform="translate(0,0) rotate(0)"><use href="#O" class="c1" data-layer="4" transform="translate(80,350.5029)"/><use href="#O" class="c2" data-layer="4" transform="translate(40,350.5029)"/><use href="#O" class="c0" data-layer="4" transform="translate(0,350.5029)"/><use href="#O" class="c1" data-layer="4" transform="translate(-40,350.5029)"/><use href="#O" class="c2" data-layer="4" transform="translate(-80,350.5029)"/></g><g transform="translate(0,0) rotate(0)"><use href="#O" class="c2" data-layer="5" transform="translate(100,438.1286)"/><use href="#O" class="c0" data-layer="5" transform="translate(60,438.1286)"/><use href="#O" class="c1" data-layer="5" transform="translate(20,438.1286)"/><use href="#O" class="c2" data-layer="5" transform="translate(-20,438.1286)"/><use href="#O" class="c0" data-layer="5" transform="translate(-60,438.1286)"/><use href="#O" class="c1" data-layer="5" transform="translate(-100,438.1286)"/></g><g transform="translate(0,0) rotate(0)"><use href="#O" class="c0" data-layer="6" transform="translate(120,525.7544)"/><use href="#O" class="c1" data-layer="6" transform="translate(80,525.7544)"/><use href="#O" class="c2" data-layer="6" transform="translate(40,525.7544)"/><use href="#O" class="c0" data-layer="6" transform="translate(0,525.7544)"/><use href="#O" class="c1" data-layer="6" transform="translate(-40,525.7544)"/><use href="#O" class="c2" data-layer="6" transform="translate(-80,525.7544)"/><use href="#O" class="c0" data-layer="6" transform="translate(-120,525.7544)"/></g><g transform="translate(0,0) rotate(0)"><use href="#O" class="c1" data-layer="7" transform="translate(140,613.3801)"/><use href="#O" class="c2" data-layer="7" transform="translate(100,613.3801)"/><use href="#O" class="c0" data-layer="7" transform="translate(60,613.3801)"/><use href="#O" class="c1" data-layer="7" transform="translate(20,613.3801)"/><use href="#O" class="c2" data-layer="7" transform="translate(-20,613.3801)"/><use href="#O" class="c0" data-layer="7" transform="translate(-60,613.3801)"/><use href="#O" class="c1" data-layer="7" transform="translate(-100,613.3801)"/><use href="#O" class="c2" data-layer="7" transform="translate(-140,613.3801)"/></g></g><g><g transform="translate(-33.569,59.4495) rotate(25.7143)"><use href="#O" class="c1" data-layer="0" transform="translate(0,0)"/></g><g transform="translate(-33.569,59.4495) rotate(25.7143)"><use href="#O" class="c0" data-layer="1" transform="translate(20,87.6257)"/><use href="#O" class="c2" data-layer="1" transform="translate(-20,87.6257)"/></g><g transform="translate(-33.569,59.4495) rotate(25.7143)"><use href="#O" class="c2" data-layer="2" transform="translate(40,175.2515)"/><use href="#O" class="c1" data-layer="2" transform="translate(0,175.2515)"/><use href="#O" class="c0" data-layer="2" transform="translate(-40,175.2515)"/></g><g transform="translate(-33.569,59.4495) rotate(25.7143)"><use href="#O" class="c1" data-layer="3" transform="translate(60,262.8772)"/><use href="#O" class="c0" data-layer="3" transform="translate(20,262.8772)"/><use href="#O" class="c2" data-layer="3" transform="translate(-20,262.8772)"/><use href="#O" class="c1" data-layer="3" transform="translate(-60,262.8772)"/></g><g transform="translate(-33.569,59.4495) rotate(25.7143)"><use href="#O" class="c0" data-layer="4" transform="translate(80,350.5029)"/><use href="#O" class="c2" data-layer="4" transform="translate(40,350.5029)"/><use href="#O" class="c1" data-layer="4" transform="translate(0,350.5029)"/><use href="#O" class="c0" data-layer="4" transform="translate(-40,350.5029)"/><use href="#O" class="c2" data-layer="4" transform="translate(-80,350.5029)"/></g><g transform="translate(-33.569,59.4495) rotate(25.7143)"><use href="#O" class="c2" data-layer="5" transform="translate(100,438.1286)"/><use href="#O" class="c1" data-layer="5" transform="translate(60,438.1286)"/><use href="#O" class="c0" data-layer="5" transform="translate(20,438.1286)"/><use href="#O" class="c2" data-layer="5" transform="translate(-20,438.1286)"/><use href="#O" class="c1" data-layer="5" transform="translate(-60,438.1286)"/><use href="#O" class="c0" data-layer="5" transform="translate(-100,438.1286)"/></g><g transform="translate(-33.569,59.4495) rotate(25.7143)"><use href="#O" class="c1" data-layer="6" transform="translate(120,525.7544)"/><use href="#O" class="c0" data-layer="6" transform="translate(80,525.7544)"/><use href="#O" class="c2" data-layer="6" transform="translate(40,525.7544)"/><use href="#O" class="c1" data-layer="6" transform="translate(0,525.7544)"/><use href="#O" class="c0" data-layer="6" transform="translate(-40,525.7544)"/><use href="#O" class="c2" data-layer="6" transform="translate(-80,525.7544)"/><use href="#O" class="c1" data-layer="6" transform="translate(-120,525.7544)"/></g><g transform="translate(-33.569,59.4495) rotate(25.7143)"><use href="#O" class="c0" data-layer="7" transform="translate(140,613.3801)"/><use href="#O" class="c2" data-layer="7" transform="translate(100,613.3801)"/><use href="#O" class="c1" data-layer="7" transform="translate(60,613.3801)"/><use href="#O" class="c0" data-layer="7" transform="translate(20,613.3801)"/><use href="#O" class="c2" data-layer="7" transform="translate(-20,613.3801)"/><use href="#O" class="c1" data-layer="7" transform="translate(-60,613.3801)"/><use href="#O" class="c0" data-layer="7" transform="translate(-100,613.3801)"/><use href="#O" class="c2" data-layer="7" transform="translate(-140,613.3801)"/></g></g><g><g transform="translate(-33.569,28.1762) rotate(51.4286)"><use href="#O" class="c2" data-layer="0" transform="translate(0,0)"/></g><g transform="translate(-33.569,28.1762) rotate(51.4286)"><use href="#O" class="c0" data-layer="1" transform="translate(20,87.6257)"/><use href="#O" class="c1" data-layer="1" transform="translate(-20,87.6257)"/></g><g transform="translate(-33.569,28.1762) rotate(51.4286)"><use href="#O" class="c1" data-layer="2" transform="translate(40,175.2515)"/><use href="#O" class="c2" data-layer="2" transform="translate(0,175.2515)"/><use href="#O" class="c0" data-layer="2" transform="translate(-40,175.2515)"/></g><g transform="translate(-33.569,28.1762) rotate(51.4286)"><use href="#O" class="c2" data-layer="3" transform="translate(60,262.8772)"/><use href="#O" class="c0" data-layer="3" transform="translate(20,262.8772)"/><use href="#O" class="c1" data-layer="3" transform="translate(-20,262.8772)"/><use href="#O" class="c2" data-layer="3" transform="translate(-60,262.8772)"/></g><g transform="translate(-33.569,28.1762) rotate(51.4286)"><use href="#O" class="c0" data-layer="4" transform="translate(80,350.5029)"/><use href="#O" class="c1" data-layer="4" transform="translate(40,350.5029)"/><use href="#O" class="c2" data-layer="4" transform="translate(0,350.5029)"/><use href="#O" class="c0" data-layer="4" transform="translate(-40,350.5029)"/><use href="#O" class="c1" data-layer="4" transform="translate(-80,350.5029)"/></g><g transform="translate(-33.569,28.1762) rotate(51.4286)"><use href="#O" class="c1" data-layer="5" transform="translate(100,438.1286)"/><use href="#O" class="c2" data-layer="5" transform="translate(60,438.1286)"/><use href="#O" class="c0" data-layer="5" transform="translate(20,438.1286)"/><use href="#O" class="c1" data-layer="5" transform="translate(-20,438.1286)"/><use href="#O" class="c2" data-layer="5" transform="translate(-60,438.1286)"/><use href="#O" class="c0" data-layer="5" transform="translate(-100,438.1286)"/></g><g transform="translate(-33.569,28.1762) rotate(51.4286)"><use href="#O" class="c2" data-layer="6" transform="translate(120,525.7544)"/><use href="#O" class="c0" data-layer="6" transform="translate(80,525.7544)"/><use href="#O" class="c1" data-layer="6" transform="translate(40,525.7544)"/><use href="#O" class="c2" data-layer="6" transform="translate(0,525.7544)"/><use href="#O" class="c0" data-layer="6" transform="translate(-40,525.7544)"/><use href="#O" class="c1" data-layer="6" transform="translate(-80,525.7544)"/><use href="#O" class="c2" data-layer="6" transform="translate(-120,525.7544)"/></g><g transform="translate(-33.569,28.1762) rotate(51.4286)"><use href="#O" class="c0" data-layer="7" transform="translate(140,613.3801)"/><use href="#O" class="c1" data-layer="7" transform="translate(100,613.3801)"/><use href="#O" class="c2" data-layer="7" transform="translate(60,613.3801)"/><use href="#O" class="c0" data-layer="7" transform="translate(20,613.3801)"/><use href="#O" class="c1" data-layer="7" transform="translate(-20,613.3801)"/><use href="#O" class="c2" data-layer="7" transform="translate(-60,613.3801)"/><use href="#O" class="c0" data-layer="7" transform="translate(-100,613.3801)"/><use href="#O" class="c1" data-layer="7" transform="translate(-140,613.3801)"/></g></g><g><g transform="translate(-20,0) rotate(77.1429)"><use href="#O" class="c1" data-layer="0" transform="translate(0,0)"/></g><g transform="translate(-20,0) rotate(77.1429)"><use href="#O" class="c0" data-layer="1" transform="translate(20,87.6257)"/><use href="#O" class="c2" data-layer="1" transform="translate(-20,87.6257)"/></g><g transform="translate(-20,0) rotate(77.1429)"><use href="#O" class="c2" data-layer="2" transform="translate(40,175.2515)"/><use href="#O" class="c1" data-layer="2" transform="translate(0,175.2515)"/><use href="#O" class="c0" data-layer="2" transform="translate(-40,175.2515)"/></g><g transform="translate(-20,0) rotate(77.1429)"><use href="#O" class="c1" data-layer="3" transform="translate(60,262.8772)"/><use href="#O" class="c0" data-layer="3" transform="translate(20,262.8772)"/><use href="#O" class="c2" data-layer="3" transform="translate(-20,262.8772)"/><use href="#O" class="c1" data-layer="3" transform="translate(-60,262.8772)"/></g><g transform="translate(-20,0) rotate(77.1429)"><use href="#O" class="c0" data-layer="4" transform="translate(80,350.5029)"/><use href="#O" class="c2" data-layer="4" transform="translate(40,350.5029)"/><use href="#O" class="c1" data-layer="4" transform="translate(0,350.5029)"/><use href="#O" class="c0" data-layer="4" transform="translate(-40,350.5029)"/><use href="#O" class="c2" data-layer="4" transform="translate(-80,350.5029)"/></g><g transform="translate(-20,0) rotate(77.1429)"><use href="#O" class="c2" data-layer="5" transform="translate(100,438.1286)"/><use href="#O" class="c1" data-layer="5" transform="translate(60,438.1286)"/><use href="#O" class="c0" data-layer="5" transform="translate(20,438.1286)"/><use href="#O" class="c2" data-layer="5" transform="translate(-20,438.1286)"/><use href="#O" class="c1" data-layer="5" transform="translate(-60,438.1286)"/><use href="#O" class="c0" data-layer="5" transform="translate(-100,438.1286)"/></g><g transform="translate(-20,0) rotate(77.1429)"><use href="#O" class="c1" data-layer="6" transform="translate(120,525.7544)"/><use href="#O" class="c0" data-layer="6" transform="translate(80,525.7544)"/><use href="#O" class="c2" data-layer="6" transform="translate(40,525.7544)"/><use href="#O" class="c1" data-layer="6" transform="translate(0,525.7544)"/><use href="#O" class="c0" data-layer="6" transform="translate(-40,525.7544)"/><use href="#O" class="c2" data-layer="6" transform="translate(-80,525.7544)"/><use href="#O" class="c1" data-layer="6" transform="translate(-120,525.7544)"/></g><g transform="translate(-20,0) rotate(77.1429)"><use href="#O" class="c0" data-layer="7" transform="translate(140,613.3801)"/><use href="#O" class="c2" data-layer="7" transform="translate(100,613.3801)"/><use href="#O" class="c1" data-layer="7" transform="translate(60,613.3801)"/><use href="#O" class="c0" data-layer="7" transform="translate(20,613.3801)"/><use href="#O" class="c2" data-layer="7" transform="translate(-20,613.3801)"/><use href="#O" class="c1" data-layer="7" transform="translate(-60,613.3801)"/><use href="#O" class="c0" data-layer="7" transform="translate(-100,613.3801)"/><use href="#O" class="c2" data-layer="7" transform="translate(-140,613.3801)"/></g></g><g><g transform="translate(-85.4288,-19.4986) rotate(102.8571)"><use href="#O" class="c0" data-layer="0" transform="translate(0,0)"/></g><g transform="translate(-85.4288,-19.4986) rotate(102.8571)"><use href="#O" class="c1" data-layer="1" transform="translate(20,87.6257)"/><use href="#O" class="c2" data-layer="1" transform="translate(-20,87.6257)"/></g><g transform="translate(-85.4288,-19.4986) rotate(102.8571)"><use href="#O" class="c2" data-layer="2" transform="translate(40,175.2515)"/><use href="#O" class="c0" data-layer="2" transform="translate(0,175.2515)"/><use href="#O" class="c1" data-layer="2" transform="translate(-40,175.2515)"/></g><g transform="translate(-85.4288,-19.4986) rotate(102.8571)"><use href="#O" class="c0" data-layer="3" transform="translate(60,262.8772)"/><use href="#O" class="c1" data-layer="3" transform="translate(20,262.8772)"/><use href="#O" class="c2" data-layer="3" transform="translate(-20,262.8772)"/><use href="#O" class="c0" data-layer="3" transform="translate(-60,262.8772)"/></g><g transform="translate(-85.4288,-19.4986) rotate(102.8571)"><use href="#O" class="c1" data-layer="4" transform="translate(80,350.5029)"/><use href="#O" class="c2" data-layer="4" transform="translate(40,350.5029)"/><use href="#O" class="c0" data-layer="4" transform="translate(0,350.5029)"/><use href="#O" class="c1" data-layer="4" transform="translate(-40,350.5029)"/><use href="#O" class="c2" data-layer="4" transform="translate(-80,350.5029)"/></g><g transform="translate(-85.4288,-19.4986) rotate(102.8571)"><use href="#O" class="c2" data-layer="5" transform="translate(100,438.1286)"/><use href="#O" class="c0" data-layer="5" transform="translate(60,438.1286)"/><use href="#O" class="c1" data-layer="5" transform="translate(20,438.1286)"/><use href="#O" class="c2" data-layer="5" transform="translate(-20,438.1286)"/><use href="#O" class="c0" data-layer="5" transform="translate(-60,438.1286)"/><use href="#O" class="c1" data-layer="5" transform="translate(-100,438.1286)"/></g><g transform="translate(-85.4288,-19.4986) rotate(102.8571)"><use href="#O" class="c0" data-layer="6" transform="translate(120,525.7544)"/><use href="#O" class="c1" data-layer="6" transform="translate(80,525.7544)"/><use href="#O" class="c2" data-layer="6" transform="translate(40,525.7544)"/><use href="#O" class="c0" data-layer="6" transform="translate(0,525.7544)"/><use href="#O" class="c1" data-layer="6" transform="translate(-40,525.7544)"/><use href="#O" class="c2" data-layer="6" transform="translate(-80,525.7544)"/><use href="#O" class="c0" data-layer="6" transform="translate(-120,525.7544)"/></g><g transform="translate(-85.4288,-19.4986) rotate(102.8571)"><use href="#O" class="c1" data-layer="7" transform="translate(140,613.3801)"/><use href="#O" class="c2" data-layer="7" transform="translate(100,613.3801)"/><use href="#O" class="c0" data-layer="7" transform="translate(60,613.3801)"/><use href="#O" class="c1" data-layer="7" transform="translate(20,613.3801)"/><use href="#O" class="c2" data-layer="7" transform="translate(-20,613.3801)"/><use href="#O" class="c0" data-layer="7" transform="translate(-60,613.3801)"/><use href="#O" class="c1" data-layer="7" transform="translate(-100,613.3801)"/><use href="#O" class="c2" data-layer="7" transform="translate(-140,613.3801)"/></g></g><g><g transform="translate(-54.9396,-26.4575) rotate(128.5714)"><use href="#O" class="c2" data-layer="0" transform="translate(0,0)"/></g><g transform="translate(-54.9396,-26.4575) rotate(128.5714)"><use href="#O" class="c1" data-layer="1" transform="translate(20,87.6257)"/><use href="#O" class="c0" data-layer="1" transform="translate(-20,87.6257)"/></g><g transform="translate(-54.9396,-26.4575) rotate(128.5714)"><use href="#O" class="c0" data-layer="2" transform="translate(40,175.2515)"/><use href="#O" class="c2" data-layer="2" transform="translate(0,175.2515)"/><use href="#O" class="c1" data-layer="2" transform="translate(-40,175.2515)"/></g><g transform="translate(-54.9396,-26.4575) rotate(128.5714)"><use href="#O" class="c2" data-layer="3" transform="translate(60,262.8772)"/><use href="#O" class="c1" data-layer="3" transform="translate(20,262.8772)"/><use href="#O" class="c0" data-layer="3" transform="translate(-20,262.8772)"/><use href="#O" class="c2" data-layer="3" transform="translate(-60,262.8772)"/></g><g transform="translate(-54.9396,-26.4575) rotate(128.5714)"><use href="#O" class="c1" data-layer="4" transform="translate(80,350.5029)"/><use href="#O" class="c0" data-layer="4" transform="translate(40,350.5029)"/><use href="#O" class="c2" data-layer="4" transform="translate(0,350.5029)"/><use href="#O" class="c1" data-layer="4" transform="translate(-40,350.5029)"/><use href="#O" class="c0" data-layer="4" transform="translate(-80,350.5029)"/></g><g transform="translate(-54.9396,-26.4575) rotate(128.5714)"><use href="#O" class="c0" data-layer="5" transform="translate(100,438.1286)"/><use href="#O" class="c2" data-layer="5" transform="translate(60,438.1286)"/><use href="#O" class="c1" data-layer="5" transform="translate(20,438.1286)"/><use href="#O" class="c0" data-layer="5" transform="translate(-20,438.1286)"/><use href="#O" class="c2" data-layer="5" transform="translate(-60,438.1286)"/><use href="#O" class="c1" data-layer="5" transform="translate(-100,438.1286)"/></g><g transform="translate(-54.9396,-26.4575) rotate(128.5714)"><use href="#O" class="c2" data-layer="6" transform="translate(120,525.7544)"/><use href="#O" class="c1" data-layer="6" transform="translate(80,525.7544)"/><use href="#O" class="c0" data-layer="6" transform="translate(40,525.7544)"/><use href="#O" class="c2" data-layer="6" transform="translate(0,525.7544)"/><use href="#O" class="c1" data-layer="6" transform="translate(-40,525.7544)"/><use href="#O" class="c0" data-layer="6" transform="translate(-80,525.7544)"/><use href="#O" class="c2" data-layer="6" transform="translate(-120,525.7544)"/></g><g transform="translate(-54.9396,-26.4575) rotate(128.5714)"><use href="#O" class="c1" data-layer="7" transform="translate(140,613.3801)"/><use href="#O" class="c0" data-layer="7" transform="translate(100,613.3801)"/><use href="#O" class="c2" data-layer="7" transform="translate(60,613.3801)"/><use href="#O" class="c1" data-layer="7" transform="translate(20,613.3801)"/><use href="#O" class="c0" data-layer="7" transform="translate(-20,613.3801)"/><use href="#O" class="c2" data-layer="7" transform="translate(-60,613.3801)"/><use href="#O" class="c1" data-layer="7" transform="translate(-100,613.3801)"/><use href="#O" class="c0" data-layer="7" transform="translate(-140,613.3801)"/></g></g><g><g transform="translate(-24.4504,-19.4986) rotate(154.2857)"><use href="#O" class="c0" data-layer="0" transform="translate(0,0)"/></g><g transform="translate(-24.4504,-19.4986) rotate(154.2857)"><use href="#O" class="c1" data-layer="1" transform="translate(20,87.6257)"/><use href="#O" class="c2" data-layer="1" transform="translate(-20,87.6257)"/></g><g transform="translate(-24.4504,-19.4986) rotate(154.2857)"><use href="#O" class="c2" data-layer="2" transform="translate(40,175.2515)"/><use href="#O" class="c0" data-layer="2" transform="translate(0,175.2515)"/><use href="#O" class="c1" data-layer="2" transform="translate(-40,175.2515)"/></g><g transform="translate(-24.4504,-19.4986) rotate(154.2857)"><use href="#O" class="c0" data-layer="3" transform="translate(60,262.8772)"/><use href="#O" class="c1" data-layer="3" transform="translate(20,262.8772)"/><use href="#O" class="c2" data-layer="3" transform="translate(-20,262.8772)"/><use href="#O" class="c0" data-layer="3" transform="translate(-60,262.8772)"/></g><g transform="translate(-24.4504,-19.4986) rotate(154.2857)"><use href="#O" class="c1" data-layer="4" transform="translate(80,350.5029)"/><use href="#O" class="c2" data-layer="4" transform="translate(40,350.5029)"/><use href="#O" class="c0" data-layer="4" transform="translate(0,350.5029)"/><use href="#O" class="c1" data-layer="4" transform="translate(-40,350.5029)"/><use href="#O" class="c2" data-layer="4" transform="translate(-80,350.5029)"/></g><g transform="translate(-24.4504,-19.4986) rotate(154.2857)"><use href="#O" class="c2" data-layer="5" transform="translate(100,438.1286)"/><use href="#O" class="c0" data-layer="5" transform="translate(60,438.1286)"/><use href="#O" class="c1" data-layer="5" transform="translate(20,438.1286)"/><use href="#O" class="c2" data-layer="5" transform="translate(-20,438.1286)"/><use href="#O" class="c0" data-layer="5" transform="translate(-60,438.1286)"/><use href="#O" class="c1" data-layer="5" transform="translate(-100,438.1286)"/></g><g transform="translate(-24.4504,-19.4986) rotate(154.2857)"><use href="#O" class="c0" data-layer="6" transform="translate(120,525.7544)"/><use href="#O" class="c1" data-layer="6" transform="translate(80,525.7544)"/><use href="#O" class="c2" data-layer="6" transform="translate(40,525.7544)"/><use href="#O" class="c0" data-layer="6" transform="translate(0,525.7544)"/><use href="#O" class="c1" data-layer="6" transform="translate(-40,525.7544)"/><use href="#O" class="c2" data-layer="6" transform="translate(-80,525.7544)"/><use href="#O" class="c0" data-layer="6" transform="translate(-120,525.7544)"/></g><g transform="translate(-24.4504,-19.4986) rotate(154.2857)"><use href="#O" class="c1" data-layer="7" transform="translate(140,613.3801)"/><use href="#O" class="c2" data-layer="7" transform="translate(100,613.3801)"/><use href="#O" class="c0" data-layer="7" transform="translate(60,613.3801)"/><use href="#O" class="c1" data-layer="7" transform="translate(20,613.3801)"/><use href="#O" class="c2" data-layer="7" transform="translate(-20,613.3801)"/><use href="#O" class="c0" data-layer="7" transform="translate(-60,613.3801)"/><use href="#O" class="c1" data-layer="7" transform="translate(-100,613.3801)"/><use href="#O" class="c2" data-layer="7" transform="translate(-140,613.3801)"/></g></g><g><g transform="translate(0,0) rotate(180)"><use href="#O" class="c2" data-layer="0" transform="translate(0,0)"/></g><g transform="translate(0,0) rotate(180)"><use href="#O" class="c1" data-layer="1" transform="translate(20,87.6257)"/><use href="#O" class="c0" data-layer="1" transform="translate(-20,87.6257)"/></g><g transform="translate(0,0) rotate(180)"><use href="#O" class="c0" data-layer="2" transform="translate(40,175.2515)"/><use href="#O" class="c2" data-layer="2" transform="translate(0,175.2515)"/><use href="#O" class="c1" data-layer="2" transform="translate(-40,175.2515)"/></g><g transform="translate(0,0) rotate(180)"><use href="#O" class="c2" data-layer="3" transform="translate(60,262.8772)"/><use href="#O" class="c1" data-layer="3" transform="translate(20,262.8772)"/><use href="#O" class="c0" data-layer="3" transform="translate(-20,262.8772)"/><use href="#O" class="c2" data-layer="3" transform="translate(-60,262.8772)"/></g><g transform="translate(0,0) rotate(180)"><use href="#O" class="c1" data-layer="4" transform="translate(80,350.5029)"/><use href="#O" class="c0" data-layer="4" transform="translate(40,350.5029)"/><use href="#O" class="c2" data-layer="4" transform="translate(0,350.5029)"/><use href="#O" class="c1" data-layer="4" transform="translate(-40,350.5029)"/><use href="#O" class="c0" data-layer="4" transform="translate(-80,350.5029)"/></g><g transform="translate(0,0) rotate(180)"><use href="#O" class="c0" data-layer="5" transform="translate(100,438.1286)"/><use href="#O" class="c2" data-layer="5" transform="translate(60,438.1286)"/><use href="#O" class="c1" data-layer="5" transform="translate(20,438.1286)"/><use href="#O" class="c0" data-layer="5" transform="translate(-20,438.1286)"/><use href="#O" class="c2" data-layer="5" transform="translate(-60,438.1286)"/><use href="#O" class="c1" data-layer="5" transform="translate(-100,438.1286)"/></g><g transform="translate(0,0) rotate(180)"><use href="#O" class="c2" data-layer="6" transform="translate(120,525.7544)"/><use href="#O" class="c1" data-layer="6" transform="translate(80,525.7544)"/><use href="#O" class="c0" data-layer="6" transform="translate(40,525.7544)"/><use href="#O" class="c2" data-layer="6" transform="translate(0,525.7544)"/><use href="#O" class="c1" data-layer="6" transform="translate(-40,525.7544)"/><use href="#O" class="c0" data-layer="6" transform="translate(-80,525.7544)"/><use href="#O" class="c2" data-layer="6" transform="translate(-120,525.7544)"/></g><g transform="translate(0,0) rotate(180)"><use href="#O" class="c1" data-layer="7" transform="translate(140,613.3801)"/><use href="#O" class="c0" data-layer="7" transform="translate(100,613.3801)"/><use href="#O" class="c2" data-layer="7" transform="translate(60,613.3801)"/><use href="#O" class="c1" data-layer="7" transform="translate(20,613.3801)"/><use href="#O" class="c0" data-layer="7" transform="translate(-20,613.3801)"/><use href="#O" class="c2" data-layer="7" transform="translate(-60,613.3801)"/><use href="#O" class="c1" data-layer="7" transform="translate(-100,613.3801)"/><use href="#O" class="c0" data-layer="7" transform="translate(-140,613.3801)"/></g></g><g><g transform="translate(33.569,-59.4495) rotate(205.7143)"><use href="#O" class="c1" data-layer="0" transform="translate(0,0)"/></g><g transform="translate(33.569,-59.4495) rotate(205.7143)"><use href="#O" class="c2" data-layer="1" transform="translate(20,87.6257)"/><use href="#O" class="c0" data-layer="1" transform="translate(-20,87.6257)"/></g><g transform="translate(33.569,-59.4495) rotate(205.7143)"><use href="#O" class="c0" data-layer="2" transform="translate(40,175.2515)"/><use href="#O" class="c1" data-layer="2" transform="translate(0,175.2515)"/><use href="#O" class="c2" data-layer="2" transform="translate(-40,175.2515)"/></g><g transform="translate(33.569,-59.4495) rotate(205.7143)"><use href="#O" class="c1" data-layer="3" transform="translate(60,262.8772)"/><use href="#O" class="c2" data-layer="3" transform="translate(20,262.8772)"/><use href="#O" class="c0" data-layer="3" transform="translate(-20,262.8772)"/><use href="#O" class="c1" data-layer="3" transform="translate(-60,262.8772)"/></g><g transform="translate(33.569,-59.4495) rotate(205.7143)"><use href="#O" class="c2" data-layer="4" transform="translate(80,350.5029)"/><use href="#O" class="c0" data-layer="4" transform="translate(40,350.5029)"/><use href="#O" class="c1" data-layer="4" transform="translate(0,350.5029)"/><use href="#O" class="c2" data-layer="4" transform="translate(-40,350.5029)"/><use href="#O" class="c0" data-layer="4" transform="translate(-80,350.5029)"/></g><g transform="translate(33.569,-59.4495) rotate(205.7143)"><use href="#O" class="c0" data-layer="5" transform="translate(100,438.1286)"/><use href="#O" class="c1" data-layer="5" transform="translate(60,438.1286)"/><use href="#O" class="c2" data-layer="5" transform="translate(20,438.1286)"/><use href="#O" class="c0" data-layer="5" transform="translate(-20,438.1286)"/><use href="#O" class="c1" data-layer="5" transform="translate(-60,438.1286)"/><use href="#O" class="c2" data-layer="5" transform="translate(-100,438.1286)"/></g><g transform="translate(33.569,-59.4495) rotate(205.7143)"><use href="#O" class="c1" data-layer="6" transform="translate(120,525.7544)"/><use href="#O" class="c2" data-layer="6" transform="translate(80,525.7544)"/><use href="#O" class="c0" data-layer="6" transform="translate(40,525.7544)"/><use href="#O" class="c1" data-layer="6" transform="translate(0,525.7544)"/><use href="#O" class="c2" data-layer="6" transform="translate(-40,525.7544)"/><use href="#O" class="c0" data-layer="6" transform="translate(-80,525.7544)"/><use href="#O" class="c1" data-layer="6" transform="translate(-120,525.7544)"/></g><g transform="translate(33.569,-59.4495) rotate(205.7143)"><use href="#O" class="c2" data-layer="7" transform="translate(140,613.3801)"/><use href="#O" class="c0" data-layer="7" transform="translate(100,613.3801)"/><use href="#O" class="c1" data-layer="7" transform="translate(60,613.3801)"/><use href="#O" class="c2" data-layer="7" transform="translate(20,613.3801)"/><use href="#O" class="c0" data-layer="7" transform="translate(-20,613.3801)"/><use href="#O" class="c1" data-layer="7" transform="translate(-60,613.3801)"/><use href="#O" class="c2" data-layer="7" transform="translate(-100,613.3801)"/><use href="#O" class="c0" data-layer="7" transform="translate(-140,613.3801)"/></g></g><g><g transform="translate(33.569,-28.1762) rotate(231.4286)"><use href="#O" class="c0" data-layer="0" transform="translate(0,0)"/></g><g transform="translate(33.569,-28.1762) rotate(231.4286)"><use href="#O" class="c2" data-layer="1" transform="translate(20,87.6257)"/><use href="#O" class="c1" data-layer="1" transform="translate(-20,87.6257)"/></g><g transform="translate(33.569,-28.1762) rotate(231.4286)"><use href="#O" class="c1" data-layer="2" transform="translate(40,175.2515)"/><use href="#O" class="c0" data-layer="2" transform="translate(0,175.2515)"/><use href="#O" class="c2" data-layer="2" transform="translate(-40,175.2515)"/></g><g transform="translate(33.569,-28.1762) rotate(231.4286)"><use href="#O" class="c0" data-layer="3" transform="translate(60,262.8772)"/><use href="#O" class="c2" data-layer="3" transform="translate(20,262.8772)"/><use href="#O" class="c1" data-layer="3" transform="translate(-20,262.8772)"/><use href="#O" class="c0" data-layer="3" transform="translate(-60,262.8772)"/></g><g transform="translate(33.569,-28.1762) rotate(231.4286)"><use href="#O" class="c2" data-layer="4" transform="translate(80,350.5029)"/><use href="#O" class="c1" data-layer="4" transform="translate(40,350.5029)"/><use href="#O" class="c0" data-layer="4" transform="translate(0,350.5029)"/><use href="#O" class="c2" data-layer="4" transform="translate(-40,350.5029)"/><use href="#O" class="c1" data-layer="4" transform="translate(-80,350.5029)"/></g><g transform="translate(33.569,-28.1762) rotate(231.4286)"><use href="#O" class="c1" data-layer="5" transform="translate(100,438.1286)"/><use href="#O" class="c0" data-layer="5" transform="translate(60,438.1286)"/><use href="#O" class="c2" data-layer="5" transform="translate(20,438.1286)"/><use href="#O" class="c1" data-layer="5" transform="translate(-20,438.1286)"/><use href="#O" class="c0" data-layer="5" transform="translate(-60,438.1286)"/><use href="#O" class="c2" data-layer="5" transform="translate(-100,438.1286)"/></g><g transform="translate(33.569,-28.1762) rotate(231.4286)"><use href="#O" class="c0" data-layer="6" transform="translate(120,525.7544)"/><use href="#O" class="c2" data-layer="6" transform="translate(80,525.7544)"/><use href="#O" class="c1" data-layer="6" transform="translate(40,525.7544)"/><use href="#O" class="c0" data-layer="6" transform="translate(0,525.7544)"/><use href="#O" class="c2" data-layer="6" transform="translate(-40,525.7544)"/><use href="#O" class="c1" data-layer="6" transform="translate(-80,525.7544)"/><use href="#O" class="c0" data-layer="6" transform="translate(-120,525.7544)"/></g><g transform="translate(33.569,-28.1762) rotate(231.4286)"><use href="#O" class="c2" data-layer="7" transform="translate(140,613.3801)"/><use href="#O" class="c1" data-layer="7" transform="translate(100,613.3801)"/><use href="#O" class="c0" data-layer="7" transform="translate(60,613.3801)"/><use href="#O" class="c2" data-layer="7" transform="translate(20,613.3801)"/><use href="#O" class="c1" data-layer="7" transform="translate(-20,613.3801)"/><use href="#O" class="c0" data-layer="7" transform="translate(-60,613.3801)"/><use href="#O" class="c2" data-layer="7" transform="translate(-100,613.3801)"/><use href="#O" class="c1" data-layer="7" transform="translate(-140,613.3801)"/></g></g><g><g transform="translate(20,-0) rotate(257.1429)"><use href="#O" class="c1" data-layer="0" transform="translate(0,0)"/></g><g transform="translate(20,-0) rotate(257.1429)"><use href="#O" class="c2" data-layer="1" transform="translate(20,87.6257)"/><use href="#O" class="c0" data-layer="1" transform="translate(-20,87.6257)"/></g><g transform="translate(20,-0) rotate(257.1429)"><use href="#O" class="c0" data-layer="2" transform="translate(40,175.2515)"/><use href="#O" class="c1" data-layer="2" transform="translate(0,175.2515)"/><use href="#O" class="c2" data-layer="2" transform="translate(-40,175.2515)"/></g><g transform="translate(20,-0) rotate(257.1429)"><use href="#O" class="c1" data-layer="3" transform="translate(60,262.8772)"/><use href="#O" class="c2" data-layer="3" transform="translate(20,262.8772)"/><use href="#O" class="c0" data-layer="3" transform="translate(-20,262.8772)"/><use href="#O" class="c1" data-layer="3" transform="translate(-60,262.8772)"/></g><g transform="translate(20,-0) rotate(257.1429)"><use href="#O" class="c2" data-layer="4" transform="translate(80,350.5029)"/><use href="#O" class="c0" data-layer="4" transform="translate(40,350.5029)"/><use href="#O" class="c1" data-layer="4" transform="translate(0,350.5029)"/><use href="#O" class="c2" data-layer="4" transform="translate(-40,350.5029)"/><use href="#O" class="c0" data-layer="4" transform="translate(-80,350.5029)"/></g><g transform="translate(20,-0) rotate(257.1429)"><use href="#O" class="c0" data-layer="5" transform="translate(100,438.1286)"/><use href="#O" class="c1" data-layer="5" transform="translate(60,438.1286)"/><use href="#O" class="c2" data-layer="5" transform="translate(20,438.1286)"/><use href="#O" class="c0" data-layer="5" transform="translate(-20,438.1286)"/><use href="#O" class="c1" data-layer="5" transform="translate(-60,438.1286)"/><use href="#O" class="c2" data-layer="5" transform="translate(-100,438.1286)"/></g><g transform="translate(20,-0) rotate(257.1429)"><use href="#O" class="c1" data-layer="6" transform="translate(120,525.7544)"/><use href="#O" class="c2" data-layer="6" transform="translate(80,525.7544)"/><use href="#O" class="c0" data-layer="6" transform="translate(40,525.7544)"/><use href="#O" class="c1" data-layer="6" transform="translate(0,525.7544)"/><use href="#O" class="c2" data-layer="6" transform="translate(-40,525.7544)"/><use href="#O" class="c0" data-layer="6" transform="translate(-80,525.7544)"/><use href="#O" class="c1" data-layer="6" transform="translate(-120,525.7544)"/></g><g transform="translate(20,-0) rotate(257.1429)"><use href="#O" class="c2" data-layer="7" transform="translate(140,613.3801)"/><use href="#O" class="c0" data-layer="7" transform="translate(100,613.3801)"/><use href="#O" class="c1" data-layer="7" transform="translate(60,613.3801)"/><use href="#O" class="c2" data-layer="7" transform="translate(20,613.3801)"/><use href="#O" class="c0" data-layer="7" transform="translate(-20,613.3801)"/><use href="#O" class="c1" data-layer="7" transform="translate(-60,613.3801)"/><use href="#O" class="c2" data-layer="7" transform="translate(-100,613.3801)"/><use href="#O" class="c0" data-layer="7" transform="translate(-140,613.3801)"/></g></g><g><g transform="translate(85.4288,19.4986) rotate(282.8571)"><use href="#O" class="c2" data-layer="0" transform="translate(0,0)"/></g><g transform="translate(85.4288,19.4986) rotate(282.8571)"><use href="#O" class="c1" data-layer="1" transform="translate(20,87.6257)"/><use href="#O" class="c0" data-layer="1" transform="translate(-20,87.6257)"/></g><g transform="translate(85.4288,19.4986) rotate(282.8571)"><use href="#O" class="c0" data-layer="2" transform="translate(40,175.2515)"/><use href="#O" class="c2" data-layer="2" transform="translate(0,175.2515)"/><use href="#O" class="c1" data-layer="2" transform="translate(-40,175.2515)"/></g><g transform="translate(85.4288,19.4986) rotate(282.8571)"><use href="#O" class="c2" data-layer="3" transform="translate(60,262.8772)"/><use href="#O" class="c1" data-layer="3" transform="translate(20,262.8772)"/><use href="#O" class="c0" data-layer="3" transform="translate(-20,262.8772)"/><use href="#O" class="c2" data-layer="3" transform="translate(-60,262.8772)"/></g><g transform="translate(85.4288,19.4986) rotate(282.8571)"><use href="#O" class="c1" data-layer="4" transform="translate(80,350.5029)"/><use href="#O" class="c0" data-layer="4" transform="translate(40,350.5029)"/><use href="#O" class="c2" data-layer="4" transform="translate(0,350.5029)"/><use href="#O" class="c1" data-layer="4" transform="translate(-40,350.5029)"/><use href="#O" class="c0" data-layer="4" transform="translate(-80,350.5029)"/></g><g transform="translate(85.4288,19.4986) rotate(282.8571)"><use href="#O" class="c0" data-layer="5" transform="translate(100,438.1286)"/><use href="#O" class="c2" data-layer="5" transform="translate(60,438.1286)"/><use href="#O" class="c1" data-layer="5" transform="translate(20,438.1286)"/><use href="#O" class="c0" data-layer="5" transform="translate(-20,438.1286)"/><use href="#O" class="c2" data-layer="5" transform="translate(-60,438.1286)"/><use href="#O" class="c1" data-layer="5" transform="translate(-100,438.1286)"/></g><g transform="translate(85.4288,19.4986) rotate(282.8571)"><use href="#O" class="c2" data-layer="6" transform="translate(120,525.7544)"/><use href="#O" class="c1" data-layer="6" transform="translate(80,525.7544)"/><use href="#O" class="c0" data-layer="6" transform="translate(40,525.7544)"/><use href="#O" class="c2" data-layer="6" transform="translate(0,525.7544)"/><use href="#O" class="c1" data-layer="6" transform="translate(-40,525.7544)"/><use href="#O" class="c0" data-layer="6" transform="translate(-80,525.7544)"/><use href="#O" class="c2" data-layer="6" transform="translate(-120,525.7544)"/></g><g transform="translate(85.4288,19.4986) rotate(282.8571)"><use href="#O" class="c1" data-layer="7" transform="translate(140,613.3801)"/><use href="#O" class="c0" data-layer="7" transform="translate(100,613.3801)"/><use href="#O" class="c2" data-layer="7" transform="translate(60,613.3801)"/><use href="#O" class="c1" data-layer="7" transform="translate(20,613.3801)"/><use href="#O" class="c0" data-layer="7" transform="translate(-20,613.3801)"/><use href="#O" class="c2" data-layer="7" transform="translate(-60,613.3801)"/><use href="#O" class="c1" data-layer="7" transform="translate(-100,613.3801)"/><use href="#O" class="c0" data-layer="7" transform="translate(-140,613.3801)"/></g></g><g><g transform="translate(54.9396,26.4575) rotate(308.5714)"><use href="#O" class="c0" data-layer="0" transform="translate(0,0)"/></g><g transform="translate(54.9396,26.4575) rotate(308.5714)"><use href="#O" class="c1" data-layer="1" transform="translate(20,87.6257)"/><use href="#O" class="c2" data-layer="1" transform="translate(-20,87.6257)"/></g><g transform="translate(54.9396,26.4575) rotate(308.5714)"><use href="#O" class="c2" data-layer="2" transform="translate(40,175.2515)"/><use href="#O" class="c0" data-layer="2" transform="translate(0,175.2515)"/><use href="#O" class="c1" data-layer="2" transform="translate(-40,175.2515)"/></g><g transform="translate(54.9396,26.4575) rotate(308.5714)"><use href="#O" class="c0" data-layer="3" transform="translate(60,262.8772)"/><use href="#O" class="c1" data-layer="3" transform="translate(20,262.8772)"/><use href="#O" class="c2" data-layer="3" transform="translate(-20,262.8772)"/><use href="#O" class="c0" data-layer="3" transform="translate(-60,262.8772)"/></g><g transform="translate(54.9396,26.4575) rotate(308.5714)"><use href="#O" class="c1" data-layer="4" transform="translate(80,350.5029)"/><use href="#O" class="c2" data-layer="4" transform="translate(40,350.5029)"/><use href="#O" class="c0" data-layer="4" transform="translate(0,350.5029)"/><use href="#O" class="c1" data-layer="4" transform="translate(-40,350.5029)"/><use href="#O" class="c2" data-layer="4" transform="translate(-80,350.5029)"/></g><g transform="translate(54.9396,26.4575) rotate(308.5714)"><use href="#O" class="c2" data-layer="5" transform="translate(100,438.1286)"/><use href="#O" class="c0" data-layer="5" transform="translate(60,438.1286)"/><use href="#O" class="c1" data-layer="5" transform="translate(20,438.1286)"/><use href="#O" class="c2" data-layer="5" transform="translate(-20,438.1286)"/><use href="#O" class="c0" data-layer="5" transform="translate(-60,438.1286)"/><use href="#O" class="c1" data-layer="5" transform="translate(-100,438.1286)"/></g><g transform="translate(54.9396,26.4575) rotate(308.5714)"><use href="#O" class="c0" data-layer="6" transform="translate(120,525.7544)"/><use href="#O" class="c1" data-layer="6" transform="translate(80,525.7544)"/><use href="#O" class="c2" data-layer="6" transform="translate(40,525.7544)"/><use href="#O" class="c0" data-layer="6" transform="translate(0,525.7544)"/><use href="#O" class="c1" data-layer="6" transform="translate(-40,525.7544)"/><use href="#O" class="c2" data-layer="6" transform="translate(-80,525.7544)"/><use href="#O" class="c0" data-layer="6" transform="translate(-120,525.7544)"/></g><g transform="translate(54.9396,26.4575) rotate(308.5714)"><use href="#O" class="c1" data-layer="7" transform="translate(140,613.3801)"/><use href="#O" class="c2" data-layer="7" transform="translate(100,613.3801)"/><use href="#O" class="c0" data-layer="7" transform="translate(60,613.3801)"/><use href="#O" class="c1" data-layer="7" transform="translate(20,613.3801)"/><use href="#O" class="c2" data-layer="7" transform="translate(-20,613.3801)"/><use href="#O" class="c0" data-layer="7" transform="translate(-60,613.3801)"/><use href="#O" class="c1" data-layer="7" transform="translate(-100,613.3801)"/><use href="#O" class="c2" data-layer="7" transform="translate(-140,613.3801)"/></g></g><g><g transform="translate(24.4504,19.4986) rotate(334.2857)"><use href="#O" class="c2" data-layer="0" transform="translate(0,0)"/></g><g transform="translate(24.4504,19.4986) rotate(334.2857)"><use href="#O" class="c1" data-layer="1" transform="translate(20,87.6257)"/><use href="#O" class="c0" data-layer="1" transform="translate(-20,87.6257)"/></g><g transform="translate(24.4504,19.4986) rotate(334.2857)"><use href="#O" class="c0" data-layer="2" transform="translate(40,175.2515)"/><use href="#O" class="c2" data-layer="2" transform="translate(0,175.2515)"/><use href="#O" class="c1" data-layer="2" transform="translate(-40,175.2515)"/></g><g transform="translate(24.4504,19.4986) rotate(334.2857)"><use href="#O" class="c2" data-layer="3" transform="translate(60,262.8772)"/><use href="#O" class="c1" data-layer="3" transform="translate(20,262.8772)"/><use href="#O" class="c0" data-layer="3" transform="translate(-20,262.8772)"/><use href="#O" class="c2" data-layer="3" transform="translate(-60,262.8772)"/></g><g transform="translate(24.4504,19.4986) rotate(334.2857)"><use href="#O" class="c1" data-layer="4" transform="translate(80,350.5029)"/><use href="#O" class="c0" data-layer="4" transform="translate(40,350.5029)"/><use href="#O" class="c2" data-layer="4" transform="translate(0,350.5029)"/><use href="#O" class="c1" data-layer="4" transform="translate(-40,350.5029)"/><use href="#O" class="c0" data-layer="4" transform="translate(-80,350.5029)"/></g><g transform="translate(24.4504,19.4986) rotate(334.2857)"><use href="#O" class="c0" data-layer="5" transform="translate(100,438.1286)"/><use href="#O" class="c2" data-layer="5" transform="translate(60,438.1286)"/><use href="#O" class="c1" data-layer="5" transform="translate(20,438.1286)"/><use href="#O" class="c0" data-layer="5" transform="translate(-20,438.1286)"/><use href="#O" class="c2" data-layer="5" transform="translate(-60,438.1286)"/><use href="#O" class="c1" data-layer="5" transform="translate(-100,438.1286)"/></g><g transform="translate(24.4504,19.4986) rotate(334.2857)"><use href="#O" class="c2" data-layer="6" transform="translate(120,525.7544)"/><use href="#O" class="c1" data-layer="6" transform="translate(80,525.7544)"/><use href="#O" class="c0" data-layer="6" transform="translate(40,525.7544)"/><use href="#O" class="c2" data-layer="6" transform="translate(0,525.7544)"/><use href="#O" class="c1" data-layer="6" transform="translate(-40,525.7544)"/><use href="#O" class="c0" data-layer="6" transform="translate(-80,525.7544)"/><use href="#O" class="c2" data-layer="6" transform="translate(-120,525.7544)"/></g><g transform="translate(24.4504,19.4986) rotate(334.2857)"><use href="#O" class="c1" data-layer="7" transform="translate(140,613.3801)"/><use href="#O" class="c0" data-layer="7" transform="translate(100,613.3801)"/><use href="#O" class="c2" data-layer="7" transform="translate(60,613.3801)"/><use href="#O" class="c1" data-layer="7" transform="translate(20,613.3801)"/><use href="#O" class="c0" data-layer="7" transform="translate(-20,613.3801)"/><use href="#O" class="c2" data-layer="7" transform="translate(-60,613.3801)"/><use href="#O" class="c1" data-layer="7" transform="translate(-100,613.3801)"/><use href="#O" class="c0" data-layer="7" transform="translate(-140,613.3801)"/></g></g></g></g></svg>