<svg xmlns="http://www.w3.org/2000/svg" width="768" height="318" viewBox="0 0 768 318"><style>path { stroke-linejoin: round; stroke-linecap: round; fill-rule: evenodd; }use { stroke: none; }.c0 { fill: #aaa; }.c1 { fill: white; }.c2 { fill: #222; }</style><defs><path id="O" d="M0 0l16,0l3.5603,15.5988l-14.4155,6.9421l9.9758,12.5093l-9.9758,12.5093l14.4155,6.9421l-3.5603,15.5988l-16,0l-16,0l3.5603,-15.5988l-14.4155,-6.9421l9.9758,-12.5093l-9.9758,-12.5093l14.4155,-6.9421l-3.5603,-15.5988l16,0Z"/><path id="Pa" d="M0 0l16,0l3.5603,15.5988l-14.4155,6.9421l9.9758,12.5093l-9.9758,12.5093l14.4155,6.9421l-3.5603,15.5988l-16,0l3.5603,-15.5988l-14.4155,-6.9421l9.9758,-12.5093l-9.9758,-12.5093l14.4155,-6.9421l-3.5603,-15.5988l-16,0l16,0Z"/><path id="Pb" d="M0 0l16,0l3.5603,15.5988l-14.4155,6.9421l9.9758,12.5093l-9.9758,12.5093l14.4155,6.9421l-3.5603,15.5988l-16,0l-16,0l16,0l3.5603,-15.5988l-14.4155,-6.9421l9.9758,-12.5093l-9.9758,-12.5093l14.4155,-6.9421l-3.5603,-15.5988Z"/><path id="Xa" d="M0 0l3.5603,15.5988l-14.4155,6.9421l9.9758,12.5093l-9.9758,12.5093l14.4155,6.9421l-3.5603,15.5988l16,0l-16,0l-16,0l3.5603,-15.5988l-14.4155,-6.9421l9.9758,-12.5093l-9.9758,-12.5093l14.4155,-6.9421l-3.5603,-15.5988l16,0Z"/><path id="Xb" d="M0 0l16,0l-16,0l3.5603,15.5988l-14.4155,6.9421l9.9758,12.5093l-9.9758,12.5093l14.4155,6.9421l-3.5603,15.5988l-16,0l3.5603,-15.5988l-14.4155,-6.9421l9.9758,-12.5093l-9.9758,-12.5093l14.4155,-6.9421l-3.5603,-15.5988l16,0Z"/><path id="Ma" d="M0 0l16,0l3.5603,15.5988l-14.4155,6.9421l9.9758,12.5093l-9.9758,12.5093l14.4155,6.9421l-3.5603,15.5988l-16,0l3.5603,-15.5988l-14.4155,-6.9421l9.9758,-12.5093l-9.9758,-12.5093l14.4155,-6.9421l-3.5603,-15.5988Z"/><path id="Mb" d="M0 0l3.5603,15.5988l-14.4155,6.9421l9.9758,12.5093l-9.9758,12.5093l14.4155,6.9421l-3.5603,15.5988l-16,0l3.5603,-15.5988l-14.4155,-6.9421l9.9758,-12.5093l-9.9758,-12.5093l14.4155,-6.9421l-3.5603,-15.5988l16,0Z"/><path id="A" d="M0 0a12.831,12.831 0 0 1 16,0a12.831,12.831 0 0 1 3.5603,15.5988a12.831,12.831 0 0 1 -14.4155,6.9421a12.831,12.831 0 0 1 9.9758,12.5093a12.831,12.831 0 0 1 -9.9758,12.5093a12.831,12.831 0 0 1 14.4155,6.9421a12.831,12.831 0 0 1 -3.5603,15.5988a12.831,12.831 0 0 1 -16,0a12.831,12.831 0 0 0 -16,0a12.831,12.831 0 0 0 3.5603,-15.5988a12.831,12.831 0 0 0 -14.4155,-6.9421a12.831,12.831 0 0 0 9.9758,-12.5093a12.831,12.831 0 0 0 -9.9758,-12.5093a12.831,12.831 0 0 0 14.4155,-6.9421a12.831,12.831 0 0 0 -3.5603,-15.5988a12.831,12.831 0 0 0 16,0Z"/><path id="APa" d="M0 0a12.831,12.831 0 0 1 16,0a12.831,12.831 0 0 1 3.5603,15.5988a12.831,12.831 0 0 1 -14.4155,6.9421a12.831,12.831 0 0 1 9.9758,12.5093a12.831,12.831 0 0 1 -9.9758,12.5093a12.831,12.831 0 0 1 14.4155,6.9421a12.831,12.831 0 0 1 -3.5603,15.5988a12.831,12.831 0 0 1 -16,0a12.831,12.831 0 0 0 3.5603,-15.5988a12.831,12.831 0 0 0 -14.4155,-6.9421a12.831,12.831 0 0 0 9.9758,-12.5093a12.831,12.831 0 0 0 -9.9758,-12.5093a12.831,12.831 0 0 0 14.4155,-6.9421a12.831,12.831 0 0 0 -3.5603,-15.5988a12.831,12.831 0 0 0 -16,0a12.831,12.831 0 0 0 16,0Z"/><path id="APb" d="M0 0a12.831,12.831 0 0 1 16,0a12.831,12.831 0 0 1 3.5603,15.5988a12.831,12.831 0 0 1 -14.4155,6.9421a12.831,12.831 0 0 1 9.9758,12.5093a12.831,12.831 0 0 1 -9.9758,12.5093a12.831,12.831 0 0 1 14.4155,6.9421a12.831,12.831 0 0 1 -3.5603,15.5988a12.831,12.831 0 0 1 -16,0a12.831,12.831 0 0 0 -16,0a12.831,12.831 0 0 0 16,0a12.831,12.831 0 0 0 3.5603,-15.5988a12.831,12.831 0 0 0 -14.4155,-6.9421a12.831,12.831 0 0 0 9.9758,-12.5093a12.831,12.831 0 0 0 -9.9758,-12.5093a12.831,12.831 0 0 0 14.4155,-6.9421a12.831,12.831 0 0 0 -3.5603,-15.5988Z"/><path id="AXa" d="M0 0a12.831,12.831 0 0 1 3.5603,15.5988a12.831,12.831 0 0 1 -14.4155,6.9421a12.831,12.831 0 0 1 9.9758,12.5093a12.831,12.831 0 0 1 -9.9758,12.5093a12.831,12.831 0 0 1 14.4155,6.9421a12.831,12.831 0 0 1 -3.5603,15.5988a12.831,12.831 0 0 1 16,0a12.831,12.831 0 0 1 -16,0a12.831,12.831 0 0 0 -16,0a12.831,12.831 0 0 0 3.5603,-15.5988a12.831,12.831 0 0 0 -14.4155,-6.9421a12.831,12.831 0 0 0 9.9758,-12.5093a12.831,12.831 0 0 0 -9.9758,-12.5093a12.831,12.831 0 0 0 14.4155,-6.9421a12.831,12.831 0 0 0 -3.5603,-15.5988a12.831,12.831 0 0 0 16,0Z"/><path id="AXb" d="M0 0a12.831,12.831 0 0 1 16,0a12.831,12.831 0 0 1 -16,0a12.831,12.831 0 0 1 3.5603,15.5988a12.831,12.831 0 0 1 -14.4155,6.9421a12.831,12.831 0 0 1 9.9758,12.5093a12.831,12.831 0 0 1 -9.9758,12.5093a12.831,12.831 0 0 1 14.4155,6.9421a12.831,12.831 0 0 1 -3.5603,15.5988a12.831,12.831 0 0 0 -16,0a12.831,12.831 0 0 0 3.5603,-15.5988a12.831,12.831 0 0 0 -14.4155,-6.9421a12.831,12.831 0 0 0 9.9758,-12.5093a12.831,12.831 0 0 0 -9.9758,-12.5093a12.831,12.831 0 0 0 14.4155,-6.9421a12.831,12.831 0 0 0 -3.5603,-15.5988a12.831,12.831 0 0 0 16,0Z"/><path id="AMa" d="M0 0a12.831,12.831 0 0 1 16,0a12.831,12.831 0 0 1 3.5603,15.5988a12.831,12.831 0 0 1 -14.4155,6.9421a12.831,12.831 0 0 1 9.9758,12.5093a12.831,12.831 0 0 1 -9.9758,12.5093a12.831,12.831 0 0 1 14.4155,6.9421a12.831,12.831 0 0 1 -3.5603,15.5988a12.831,12.831 0 0 0 -16,0a12.831,12.831 0 0 0 3.5603,-15.5988a12.831,12.831 0 0 0 -14.4155,-6.9421a12.831,12.831 0 0 0 9.9758,-12.5093a12.831,12.831 0 0 0 -9.9758,-12.5093a12.831,12.831 0 0 0 14.4155,-6.9421a12.831,12.831 0 0 0 -3.5603,-15.5988Z"/><path id="AMb" d="M0 0a12.831,12.831 0 0 1 3.5603,15.5988a12.831,12.831 0 0 1 -14.4155,6.9421a12.831,12.831 0 0 1 9.9758,12.5093a12.831,12.831 0 0 1 -9.9758,12.5093a12.831,12.831 0 0 1 14.4155,6.9421a12.831,12.831 0 0 1 -3.5603,15.5988a12.831,12.831 0 0 1 -16,0a12.831,12.831 0 0 0 3.5603,-15.5988a12.831,12.831 0 0 0 -14.4155,-6.9421a12.831,12.831 0 0 0 9.9758,-12.5093a12.831,12.831 0 0 0 -9.9758,-12.5093a12.831,12.831 0 0 0 14.4155,-6.9421a12.831,12.831 0 0 0 -3.5603,-15.5988a12.831,12.831 0 0 0 16,0Z"/></defs><g transform="translate(384 159) scale(1 -1)"><g id="Wedges"><g><g transform="translate(0,0) rotate(0)"><use href="#O" class="c0" data-layer="0" transform="translate(0,0)"/></g><g transform="translate(0,0) rotate(0)"><use href="#O" class="c1" data-layer="1" transform="translate(16,70.1006)"/><use href="#O" class="c2" data-layer="1" transform="translate(-16,70.1006)"/></g><g transform="translate(0,0) rotate(0)"><use href="#O" class="c2" data-layer="2" transform="translate(32,140.2012)"/><use href="#O" class="c0" data-layer="2" transform="translate(0,140.2012)"/><use href="#O" class="c1" data-layer="2" transform="translate(-32,140.2012)"/></g><g transform="translate(0,0) rotate(0)"><use href="#O" class="c0" data-layer="3" transform="translate(48,210.3017)"/><use href="#O" class="c1" data-layer="3" transform="translate(16,210.3017)"/><use href="#O" class="c2" data-layer="3" transform="translate(-16,210.3017)"/><use href="#O" class="c0" data-layer="3" transform="translate(-48,210.3017)"/></g><g transform="translate(0,0) rotate(0)"><use href="#O" class="c1" data-layer="4" transform="translate(64,280.4023)"/><use href="#O" class="c2" data-layer="4" transform="translate(32,280.4023)"/><use href="#O" class="c0" data-layer="4" transform="translate(0,280.4023)"/><use href="#O" class="c1" data-layer="4" transform="translate(-32,280.4023)"/><use href="#O" class="c2" data-layer="4" transform="translate(-64,280.4023)"/></g><g transform="translate(0,0) rotate(0)"><use href="#O" class="c2" data-layer="5" transform="translate(80,350.5029)"/><use href="#O" class="c0" data-layer="5" transform="translate(48,350.5029)"/><use href="#O" class="c1" data-layer="5" transform="translate(16,350.5029)"/><use href="#O" class="c2" data-layer="5" transform="translate(-16,350.5029)"/><use href="#O" class="c0" data-layer="5" transform="translate(-48,350.5029)"/><use href="#O" class="c1" data-layer="5" transform="translate(-80,350.5029)"/></g><g transform="translate(0,0) rotate(0)"><use href="#O" class="c0" data-layer="6" transform="translate(96,420.6035)"/><use href="#O" class="c1" data-layer="6" transform="translate(64,420.6035)"/><use href="#O" class="c2" data-layer="6" transform="translate(32,420.6035)"/><use href="#O" class="c0" data-layer="6" transform="translate(0,420.6035)"/><use href="#O" class="c1" data-layer="6" transform="translate(-32,420.6035)"/><use href="#O" class="c2" data-layer="6" transform="translate(-64,420.6035)"/><use href="#O" class="c0" data-layer="6" transform="translate(-96,420.6035)"/></g><g transform="translate(0,0) rotate(0)"><use href="#O" class="c1" data-layer="7" transform="translate(112,490.7041)"/><use href="#O" class="c2" data-layer="7" transform="translate(80,490.7041)"/><use href="#O" class="c0" data-layer="7" transform="translate(48,490.7041)"/><use href="#O" class="c1" data-layer="7" transform="translate(16,490.7041)"/><use href="#O" class="c2" data-layer="7" transform="translate(-16,490.7041)"/><use href="#O" class="c0" data-layer="7" transform="translate(-48,490.7041)"/><use href="#O" class="c1" data-layer="7" transform="translate(-80,490.7041)"/><use href="#O" class="c2" data-layer="7" transform="translate(-112,490.7041)"/></g></g><g><g transform="translate(-26.8552,47.5596) rotate(25.7143)"><use href="#O" class="c1" data-layer="0" transform="translate(0,0)"/></g><g transform="translate(-26.8552,47.5596) rotate(25.7143)"><use href="#O" class="c0" data-layer="1" transform="translate(16,70.1006)"/><use href="#O" class="c2" data-layer="1" transform="translate(-16,70.1006)"/></g><g transform="translate(-26.8552,47.5596) rotate(25.7143)"><use href="#O" class="c2" data-layer="2" transform="translate(32,140.2012)"/><use href="#O" class="c1" data-layer="2" transform="translate(0,140.2012)"/><use href="#O" class="c0" data-layer="2" transform="translate(-32,140.2012)"/></g><g transform="translate(-26.8552,47.5596) rotate(25.7143)"><use href="#O" class="c1" data-layer="3" transform="translate(48,210.3017)"/><use href="#O" class="c0" data-layer="3" transform="translate(16,210.3017)"/><use href="#O" class="c2" data-layer="3" transform="translate(-16,210.3017)"/><use href="#O" class="c1" data-layer="3" transform="translate(-48,210.3017)"/></g><g transform="translate(-26.8552,47.5596) rotate(25.7143)"><use href="#O" class="c0" data-layer="4" transform="translate(64,280.4023)"/><use href="#O" class="c2" data-layer="4" transform="translate(32,280.4023)"/><use href="#O" class="c1" data-layer="4" transform="translate(0,280.4023)"/><use href="#O" class="c0" data-layer="4" transform="translate(-32,280.4023)"/><use href="#O" class="c2" data-layer="4" transform="translate(-64,280.4023)"/></g><g transform="translate(-26.8552,47.5596) rotate(25.7143)"><use href="#O" class="c2" data-layer="5" transform="translate(80,350.5029)"/><use href="#O" class="c1" data-layer="5" transform="translate(48,350.5029)"/><use href="#O" class="c0" data-layer="5" transform="translate(16,350.5029)"/><use href="#O" class="c2" data-layer="5" transform="translate(-16,350.5029)"/><use href="#O" class="c1" data-layer="5" transform="translate(-48,350.5029)"/><use href="#O" class="c0" data-layer="5" transform="translate(-80,350.5029)"/></g><g transform="translate(-26.8552,47.5596) rotate(25.7143)"><use href="#O" class="c1" data-layer="6" transform="translate(96,420.6035)"/><use href="#O" class="c0" data-layer="6" transform="translate(64,420.6035)"/><use href="#O" class="c2" data-layer="6" transform="translate(32,420.6035)"/><use href="#O" class="c1" data-layer="6" transform="translate(0,420.6035)"/><use href="#O" class="c0" data-layer="6" transform="translate(-32,420.6035)"/><use href="#O" class="c2" data-layer="6" transform="translate(-64,420.6035)"/><use href="#O" class="c1" data-layer="6" transform="translate(-96,420.6035)"/></g><g transform="translate(-26.8552,47.5596) rotate(25.7143)"><use href="#O" class="c0" data-layer="7" transform="translate(112,490.7041)"/><use href="#O" class="c2" data-layer="7" transform="translate(80,490.7041)"/><use href="#O" class="c1" data-layer="7" transform="translate(48,490.7041)"/><use href="#O" class="c0" data-layer="7" transform="translate(16,490.7041)"/><use href="#O" class="c2" data-layer="7" transform="translate(-16,490.7041)"/><use href="#O" class="c1" data-layer="7" transform="translate(-48,490.7041)"/><use href="#O" class="c0" data-layer="7" transform="translate(-80,490.7041)"/><use href="#O" class="c2" data-layer="7" transform="translate(-112,490.7041)"/></g></g><g><g transform="translate(-26.8552,22.541) rotate(51.4286)"><use href="#O" class="c2" data-layer="0" transform="translate(0,0)"/></g><g transform="translate(-26.8552,22.541) rotate(51.4286)"><use href="#O" class="c0" data-layer="1" transform="translate(16,70.1006)"/><use href="#O" class="c1" data-layer="1" transform="translate(-16,70.1006)"/></g><g transform="translate(-26.8552,22.541) rotate(51.4286)"><use href="#O" class="c1" data-layer="2" transform="translate(32,140.2012)"/><use href="#O" class="c2" data-layer="2" transform="translate(0,140.2012)"/><use href="#O" class="c0" data-layer="2" transform="translate(-32,140.2012)"/></g><g transform="translate(-26.8552,22.541) rotate(51.4286)"><use href="#O" class="c2" data-layer="3" transform="translate(48,210.3017)"/><use href="#O" class="c0" data-layer="3" transform="translate(16,210.3017)"/><use href="#O" class="c1" data-layer="3" transform="translate(-16,210.3017)"/><use href="#O" class="c2" data-layer="3" transform="translate(-48,210.3017)"/></g><g transform="translate(-26.8552,22.541) rotate(51.4286)"><use href="#O" class="c0" data-layer="4" transform="translate(64,280.4023)"/><use href="#O" class="c1" data-layer="4" transform="translate(32,280.4023)"/><use href="#O" class="c2" data-layer="4" transform="translate(0,280.4023)"/><use href="#O" class="c0" data-layer="4" transform="translate(-32,280.4023)"/><use href="#O" class="c1" data-layer="4" transform="translate(-64,280.4023)"/></g><g transform="translate(-26.8552,22.541) rotate(51.4286)"><use href="#O" class="c1" data-layer="5" transform="translate(80,350.5029)"/><use href="#O" class="c2" data-layer="5" transform="translate(48,350.5029)"/><use href="#O" class="c0" data-layer="5" transform="translate(16,350.5029)"/><use href="#O" class="c1" data-layer="5" transform="translate(-16,350.5029)"/><use href="#O" class="c2" data-layer="5" transform="translate(-48,350.5029)"/><use href="#O" class="c0" data-layer="5" transform="translate(-80,350.5029)"/></g><g transform="translate(-26.8552,22.541) rotate(51.4286)"><use href="#O" class="c2" data-layer="6" transform="translate(96,420.6035)"/><use href="#O" class="c0" data-layer="6" transform="translate(64,420.6035)"/><use href="#O" class="c1" data-layer="6" transform="translate(32,420.6035)"/><use href="#O" class="c2" data-layer="6" transform="translate(0,420.6035)"/><use href="#O" class="c0" data-layer="6" transform="translate(-32,420.6035)"/><use href="#O" class="c1" data-layer="6" transform="translate(-64,420.6035)"/><use href="#O" class="c2" data-layer="6" transform="translate(-96,420.6035)"/></g><g transform="translate(-26.8552,22.541) rotate(51.4286)"><use href="#O" class="c0" data-layer="7" transform="translate(112,490.7041)"/><use href="#O" class="c1" data-layer="7" transform="translate(80,490.7041)"/><use href="#O" class="c2" data-layer="7" transform="translate(48,490.7041)"/><use href="#O" class="c0" data-layer="7" transform="translate(16,490.7041)"/><use href="#O" class="c1" data-layer="7" transform="translate(-16,490.7041)"/><use href="#O" class="c2" data-layer="7" transform="translate(-48,490.7041)"/><use href="#O" class="c0" data-layer="7" transform="translate(-80,490.7041)"/><use href="#O" class="c1" data-layer="7" transform="translate(-112,490.7041)"/></g></g><g><g transform="translate(-16,0) rotate(77.1429)"><use href="#O" class="c1" data-layer="0" transform="translate(0,0)"/></g><g transform="translate(-16,0) rotate(77.1429)"><use href="#O" class="c0" data-layer="1" transform="translate(16,70.1006)"/><use href="#O" class="c2" data-layer="1" transform="translate(-16,70.1006)"/></g><g transform="translate(-16,0) rotate(77.1429)"><use href="#O" class="c2" data-layer="2" transform="translate(32,140.2012)"/><use href="#O" class="c1" data-layer="2" transform="translate(0,140.2012)"/><use href="#O" class="c0" data-layer="2" transform="translate(-32,140.2012)"/></g><g transform="translate(-16,0) rotate(77.1429)"><use href="#O" class="c1" data-layer="3" transform="translate(48,210.3017)"/><use href="#O" class="c0" data-layer="3" transform="translate(16,210.3017)"/><use href="#O" class="c2" data-layer="3" transform="translate(-16,210.3017)"/><use href="#O" class="c1" data-layer="3" transform="translate(-48,210.3017)"/></g><g transform="translate(-16,0) rotate(77.1429)"><use href="#O" class="c0" data-layer="4" transform="translate(64,280.4023)"/><use href="#O" class="c2" data-layer="4" transform="translate(32,280.4023)"/><use href="#O" class="c1" data-layer="4" transform="translate(0,280.4023)"/><use href="#O" class="c0" data-layer="4" transform="translate(-32,280.4023)"/><use href="#O" class="c2" data-layer="4" transform="translate(-64,280.4023)"/></g><g transform="translate(-16,0) rotate(77.1429)"><use href="#O" class="c2" data-layer="5" transform="translate(80,350.5029)"/><use href="#O" class="c1" data-layer="5" transform="translate(48,350.5029)"/><use href="#O" class="c0" data-layer="5" transform="translate(16,350.5029)"/><use href="#O" class="c2" data-layer="5" transform="translate(-16,350.5029)"/><use href="#O" class="c1" data-layer="5" transform="translate(-48,350.5029)"/><use href="#O" class="c0" data-layer="5" transform="translate(-80,350.5029)"/></g><g transform="translate(-16,0) rotate(77.1429)"><use href="#O" class="c1" data-layer="6" transform="translate(96,420.6035)"/><use href="#O" class="c0" data-layer="6" transform="translate(64,420.6035)"/><use href="#O" class="c2" data-layer="6" transform="translate(32,420.6035)"/><use href="#O" class="c1" data-layer="6" transform="translate(0,420.6035)"/><use href="#O" class="c0" data-layer="6" transform="translate(-32,420.6035)"/><use href="#O" class="c2" data-layer="6" transform="translate(-64,420.6035)"/><use href="#O" class="c1" data-layer="6" transform="translate(-96,420.6035)"/></g><g transform="translate(-16,0) rotate(77.1429)"><use href="#O" class="c0" data-layer="7" transform="translate(112,490.7041)"/><use href="#O" class="c2" data-layer="7" transform="translate(80,490.7041)"/><use href="#O" class="c1" data-layer="7" transform="translate(48,490.7041)"/><use href="#O" class="c0" data-layer="7" transform="translate(16,490.7041)"/><use href="#O" class="c2" data-layer="7" transform="translate(-16,490.7041)"/><use href="#O" class="c1" data-layer="7" transform="translate(-48,490.7041)"/><use href="#O" class="c0" data-layer="7" transform="translate(-80,490.7041)"/><use href="#O" class="c2" data-layer="7" transform="translate(-112,490.7041)"/></g></g><g><g transform="translate(-68.343,-15.5988) rotate(102.8571)"><use href="#O" class="c0" data-layer="0" transform="translate(0,0)"/></g><g transform="translate(-68.343,-15.5988) rotate(102.8571)"><use href="#O" class="c1" data-layer="1" transform="translate(16,70.1006)"/><use href="#O" class="c2" data-layer="1" transform="translate(-16,70.1006)"/></g><g transform="translate(-68.343,-15.5988) rotate(102.8571)"><use href="#O" class="c2" data-layer="2" transform="translate(32,140.2012)"/><use href="#O" class="c0" data-layer="2" transform="translate(0,140.2012)"/><use href="#O" class="c1" data-layer="2" transform="translate(-32,140.2012)"/></g><g transform="translate(-68.343,-15.5988) rotate(102.8571)"><use href="#O" class="c0" data-layer="3" transform="translate(48,210.3017)"/><use href="#O" class="c1" data-layer="3" transform="translate(16,210.3017)"/><use href="#O" class="c2" data-layer="3" transform="translate(-16,210.3017)"/><use href="#O" class="c0" data-layer="3" transform="translate(-48,210.3017)"/></g><g transform="translate(-68.343,-15.5988) rotate(102.8571)"><use href="#O" class="c1" data-layer="4" transform="translate(64,280.4023)"/><use href="#O" class="c2" data-layer="4" transform="translate(32,280.4023)"/><use href="#O" class="c0" data-layer="4" transform="translate(0,280.4023)"/><use href="#O" class="c1" data-layer="4" transform="translate(-32,280.4023)"/><use href="#O" class="c2" data-layer="4" transform="translate(-64,280.4023)"/></g><g transform="translate(-68.343,-15.5988) rotate(102.8571)"><use href="#O" class="c2" data-layer="5" transform="translate(80,350.5029)"/><use href="#O" class="c0" data-layer="5" transform="translate(48,350.5029)"/><use href="#O" class="c1" data-layer="5" transform="translate(16,350.5029)"/><use href="#O" class="c2" data-layer="5" transform="translate(-16,350.5029)"/><use href="#O" class="c0" data-layer="5" transform="translate(-48,350.5029)"/><use href="#O" class="c1" data-layer="5" transform="translate(-80,350.5029)"/></g><g transform="translate(-68.343,-15.5988) rotate(102.8571)"><use href="#O" class="c0" data-layer="6" transform="translate(96,420.6035)"/><use href="#O" class="c1" data-layer="6" transform="translate(64,420.6035)"/><use href="#O" class="c2" data-layer="6" transform="translate(32,420.6035)"/><use href="#O" class="c0" data-layer="6" transform="translate(0,420.6035)"/><use href="#O" class="c1" data-layer="6" transform="translate(-32,420.6035)"/><use href="#O" class="c2" data-layer="6" transform="translate(-64,420.6035)"/><use href="#O" class="c0" data-layer="6" transform="translate(-96,420.6035)"/></g><g transform="translate(-68.343,-15.5988) rotate(102.8571)"><use href="#O" class="c1" data-layer="7" transform="translate(112,490.7041)"/><use href="#O" class="c2" data-layer="7" transform="translate(80,490.7041)"/><use href="#O" class="c0" data-layer="7" transform="translate(48,490.7041)"/><use href="#O" class="c1" data-layer="7" transform="translate(16,490.7041)"/><use href="#O" class="c2" data-layer="7" transform="translate(-16,490.7041)"/><use href="#O" class="c0" data-layer="7" transform="translate(-48,490.7041)"/><use href="#O" class="c1" data-layer="7" transform="translate(-80,490.7041)"/><use href="#O" class="c2" data-layer="7" transform="translate(-112,490.7041)"/></g></g><g><g transform="translate(-43.9517,-21.166) rotate(128.5714)"><use href="#O" class="c2" data-layer="0" transform="translate(0,0)"/></g><g transform="translate(-43.9517,-21.166) rotate(128.5714)"><use href="#O" class="c1" data-layer="1" transform="translate(16,70.1006)"/><use href="#O" class="c0" data-layer="1" transform="translate(-16,70.1006)"/></g><g transform="translate(-43.9517,-21.166) rotate(128.5714)"><use href="#O" class="c0" data-layer="2" transform="translate(32,140.2012)"/><use href="#O" class="c2" data-layer="2" transform="translate(0,140.2012)"/><use href="#O" class="c1" data-layer="2" transform="translate(-32,140.2012)"/></g><g transform="translate(-43.9517,-21.166) rotate(128.5714)"><use href="#O" class="c2" data-layer="3" transform="translate(48,210.3017)"/><use href="#O" class="c1" data-layer="3" transform="translate(16,210.3017)"/><use href="#O" class="c0" data-layer="3" transform="translate(-16,210.3017)"/><use href="#O" class="c2" data-layer="3" transform="translate(-48,210.3017)"/></g><g transform="translate(-43.9517,-21.166) rotate(128.5714)"><use href="#O" class="c1" data-layer="4" transform="translate(64,280.4023)"/><use href="#O" class="c0" data-layer="4" transform="translate(32,280.4023)"/><use href="#O" class="c2" data-layer="4" transform="translate(0,280.4023)"/><use href="#O" class="c1" data-layer="4" transform="translate(-32,280.4023)"/><use href="#O" class="c0" data-layer="4" transform="translate(-64,280.4023)"/></g><g transform="translate(-43.9517,-21.166) rotate(128.5714)"><use href="#O" class="c0" data-layer="5" transform="translate(80,350.5029)"/><use href="#O" class="c2" data-layer="5" transform="translate(48,350.5029)"/><use href="#O" class="c1" data-layer="5" transform="translate(16,350.5029)"/><use href="#O" class="c0" data-layer="5" transform="translate(-16,350.5029)"/><use href="#O" class="c2" data-layer="5" transform="translate(-48,350.5029)"/><use href="#O" class="c1" data-layer="5" transform="translate(-80,350.5029)"/></g><g transform="translate(-43.9517,-21.166) rotate(128.5714)"><use href="#O" class="c2" data-layer="6" transform="translate(96,420.6035)"/><use href="#O" class="c1" data-layer="6" transform="translate(64,420.6035)"/><use href="#O" class="c0" data-layer="6" transform="translate(32,420.6035)"/><use href="#O" class="c2" data-layer="6" transform="translate(0,420.6035)"/><use href="#O" class="c1" data-layer="6" transform="translate(-32,420.6035)"/><use href="#O" class="c0" data-layer="6" transform="translate(-64,420.6035)"/><use href="#O" class="c2" data-layer="6" transform="translate(-96,420.6035)"/></g><g transform="translate(-43.9517,-21.166) rotate(128.5714)"><use href="#O" class="c1" data-layer="7" transform="translate(112,490.7041)"/><use href="#O" class="c0" data-layer="7" transform="translate(80,490.7041)"/><use href="#O" class="c2" data-layer="7" transform="translate(48,490.7041)"/><use href="#O" class="c1" data-layer="7" transform="translate(16,490.7041)"/><use href="#O" class="c0" data-layer="7" transform="translate(-16,490.7041)"/><use href="#O" class="c2" data-layer="7" transform="translate(-48,490.7041)"/><use href="#O" class="c1" data-layer="7" transform="translate(-80,490.7041)"/><use href="#O" class="c0" data-layer="7" transform="translate(-112,490.7041)"/></g></g><g><g transform="translate(-19.5603,-15.5988) rotate(154.2857)"><use href="#O" class="c0" data-layer="0" transform="translate(0,0)"/></g><g transform="translate(-19.5603,-15.5988) rotate(154.2857)"><use href="#O" class="c1" data-layer="1" transform="translate(16,70.1006)"/><use href="#O" class="c2" data-layer="1" transform="translate(-16,70.1006)"/></g><g transform="translate(-19.5603,-15.5988) rotate(154.2857)"><use href="#O" class="c2" data-layer="2" transform="translate(32,140.2012)"/><use href="#O" class="c0" data-layer="2" transform="translate(0,140.2012)"/><use href="#O" class="c1" data-layer="2" transform="translate(-32,140.2012)"/></g><g transform="translate(-19.5603,-15.5988) rotate(154.2857)"><use href="#O" class="c0" data-layer="3" transform="translate(48,210.3017)"/><use href="#O" class="c1" data-layer="3" transform="translate(16,210.3017)"/><use href="#O" class="c2" data-layer="3" transform="translate(-16,210.3017)"/><use href="#O" class="c0" data-layer="3" transform="translate(-48,210.3017)"/></g><g transform="translate(-19.5603,-15.5988) rotate(154.2857)"><use href="#O" class="c1" data-layer="4" transform="translate(64,280.4023)"/><use href="#O" class="c2" data-layer="4" transform="translate(32,280.4023)"/><use href="#O" class="c0" data-layer="4" transform="translate(0,280.4023)"/><use href="#O" class="c1" data-layer="4" transform="translate(-32,280.4023)"/><use href="#O" class="c2" data-layer="4" transform="translate(-64,280.4023)"/></g><g transform="translate(-19.5603,-15.5988) rotate(154.2857)"><use href="#O" class="c2" data-layer="5" transform="translate(80,350.5029)"/><use href="#O" class="c0" data-layer="5" transform="translate(48,350.5029)"/><use href="#O" class="c1" data-layer="5" transform="translate(16,350.5029)"/><use href="#O" class="c2" data-layer="5" transform="translate(-16,350.5029)"/><use href="#O" class="c0" data-layer="5" transform="translate(-48,350.5029)"/><use href="#O" class="c1" data-layer="5" transform="translate(-80,350.5029)"/></g><g transform="translate(-19.5603,-15.5988) rotate(154.2857)"><use href="#O" class="c0" data-layer="6" transform="translate(96,420.6035)"/><use href="#O" class="c1" data-layer="6" transform="translate(64,420.6035)"/><use href="#O" class="c2" data-layer="6" transform="translate(32,420.6035)"/><use href="#O" class="c0" data-layer="6" transform="translate(0,420.6035)"/><use href="#O" class="c1" data-layer="6" transform="translate(-32,420.6035)"/><use href="#O" class="c2" data-layer="6" transform="translate(-64,420.6035)"/><use href="#O" class="c0" data-layer="6" transform="translate(-96,420.6035)"/></g><g transform="translate(-19.5603,-15.5988) rotate(154.2857)"><use href="#O" class="c1" data-layer="7" transform="translate(112,490.7041)"/><use href="#O" class="c2" data-layer="7" transform="translate(80,490.7041)"/><use href="#O" class="c0" data-layer="7" transform="translate(48,490.7041)"/><use href="#O" class="c1" data-layer="7" transform="translate(16,490.7041)"/><use href="#O" class="c2" data-layer="7" transform="translate(-16,490.7041)"/><use href="#O" class="c0" data-layer="7" transform="translate(-48,490.7041)"/><use href="#O" class="c1" data-layer="7" transform="translate(-80,490.7041)"/><use href="#O" class="c2" data-layer="7" transform="translate(-112,490.7041)"/></g></g><g><g transform="translate(0,0) rotate(180)"><use href="#O" class="c2" data-layer="0" transform="translate(0,0)"/></g><g transform="translate(0,0) rotate(180)"><use href="#O" class="c1" data-layer="1" transform="translate(16,70.1006)"/><use href="#O" class="c0" data-layer="1" transform="translate(-16,70.1006)"/></g><g transform="translate(0,0) rotate(180)"><use href="#O" class="c0" data-layer="2" transform="translate(32,140.2012)"/><use href="#O" class="c2" data-layer="2" transform="translate(0,140.2012)"/><use href="#O" class="c1" data-layer="2" transform="translate(-32,140.2012)"/></g><g transform="translate(0,0) rotate(180)"><use href="#O" class="c2" data-layer="3" transform="translate(48,210.3017)"/><use href="#O" class="c1" data-layer="3" transform="translate(16,210.3017)"/><use href="#O" class="c0" data-layer="3" transform="translate(-16,210.3017)"/><use href="#O" class="c2" data-layer="3" transform="translate(-48,210.3017)"/></g><g transform="translate(0,0) rotate(180)"><use href="#O" class="c1" data-layer="4" transform="translate(64,280.4023)"/><use href="#O" class="c0" data-layer="4" transform="translate(32,280.4023)"/><use href="#O" class="c2" data-layer="4" transform="translate(0,280.4023)"/><use href="#O" class="c1" data-layer="4" transform="translate(-32,280.4023)"/><use href="#O" class="c0" data-layer="4" transform="translate(-64,280.4023)"/></g><g transform="translate(0,0) rotate(180)"><use href="#O" class="c0" data-layer="5" transform="translate(80,350.5029)"/><use href="#O" class="c2" data-layer="5" transform="translate(48,350.5029)"/><use href="#O" class="c1" data-layer="5" transform="translate(16,350.5029)"/><use href="#O" class="c0" data-layer="5" transform="translate(-16,350.5029)"/><use href="#O" class="c2" data-layer="5" transform="translate(-48,350.5029)"/><use href="#O" class="c1" data-layer="5" transform="translate(-80,350.5029)"/></g><g transform="translate(0,0) rotate(180)"><use href="#O" class="c2" data-layer="6" transform="translate(96,420.6035)"/><use href="#O" class="c1" data-layer="6" transform="translate(64,420.6035)"/><use href="#O" class="c0" data-layer="6" transform="translate(32,420.6035)"/><use href="#O" class="c2" data-layer="6" transform="translate(0,420.6035)"/><use href="#O" class="c1" data-layer="6" transform="translate(-32,420.6035)"/><use href="#O" class="c0" data-layer="6" transform="translate(-64,420.6035)"/><use href="#O" class="c2" data-layer="6" transform="translate(-96,420.6035)"/></g><g transform="translate(0,0) rotate(180)"><use href="#O" class="c1" data-layer="7" transform="translate(112,490.7041)"/><use href="#O" class="c0" data-layer="7" transform="translate(80,490.7041)"/><use href="#O" class="c2" data-layer="7" transform="translate(48,490.7041)"/><use href="#O" class="c1" data-layer="7" transform="translate(16,490.7041)"/><use href="#O" class="c0" data-layer="7" transform="translate(-16,490.7041)"/><use href="#O" class="c2" data-layer="7" transform="translate(-48,490.7041)"/><use href="#O" class="c1" data-layer="7" transform="translate(-80,490.7041)"/><use href="#O" class="c0" data-layer="7" transform="translate(-112,490.7041)"/></g></g><g><g transform="translate(26.8552,-47.5596) rotate(205.7143)"><use href="#O" class="c1" data-layer="0" transform="translate(0,0)"/></g><g transform="translate(26.8552,-47.5596) rotate(205.7143)"><use href="#O" class="c2" data-layer="1" transform="translate(16,70.1006)"/><use href="#O" class="c0" data-layer="1" transform="translate(-16,70.1006)"/></g><g transform="translate(26.8552,-47.5596) rotate(205.7143)"><use href="#O" class="c0" data-layer="2" transform="translate(32,140.2012)"/><use href="#O" class="c1" data-layer="2" transform="translate(0,140.2012)"/><use href="#O" class="c2" data-layer="2" transform="translate(-32,140.2012)"/></g><g transform="translate(26.8552,-47.5596) rotate(205.7143)"><use href="#O" class="c1" data-layer="3" transform="translate(48,210.3017)"/><use href="#O" class="c2" data-layer="3" transform="translate(16,210.3017)"/><use href="#O" class="c0" data-layer="3" transform="translate(-16,210.3017)"/><use href="#O" class="c1" data-layer="3" transform="translate(-48,210.3017)"/></g><g transform="translate(26.8552,-47.5596) rotate(205.7143)"><use href="#O" class="c2" data-layer="4" transform="translate(64,280.4023)"/><use href="#O" class="c0" data-layer="4" transform="translate(32,280.4023)"/><use href="#O" class="c1" data-layer="4" transform="translate(0,280.4023)"/><use href="#O" class="c2" data-layer="4" transform="translate(-32,280.4023)"/><use href="#O" class="c0" data-layer="4" transform="translate(-64,280.4023)"/></g><g transform="translate(26.8552,-47.5596) rotate(205.7143)"><use href="#O" class="c0" data-layer="5" transform="translate(80,350.5029)"/><use href="#O" class="c1" data-layer="5" transform="translate(48,350.5029)"/><use href="#O" class="c2" data-layer="5" transform="translate(16,350.5029)"/><use href="#O" class="c0" data-layer="5" transform="translate(-16,350.5029)"/><use href="#O" class="c1" data-layer="5" transform="translate(-48,350.5029)"/><use href="#O" class="c2" data-layer="5" transform="translate(-80,350.5029)"/></g><g transform="translate(26.8552,-47.5596) rotate(205.7143)"><use href="#O" class="c1" data-layer="6" transform="translate(96,420.6035)"/><use href="#O" class="c2" data-layer="6" transform="translate(64,420.6035)"/><use href="#O" class="c0" data-layer="6" transform="translate(32,420.6035)"/><use href="#O" class="c1" data-layer="6" transform="translate(0,420.6035)"/><use href="#O" class="c2" data-layer="6" transform="translate(-32,420.6035)"/><use href="#O" class="c0" data-layer="6" transform="translate(-64,420.6035)"/><use href="#O" class="c1" data-layer="6" transform="translate(-96,420.6035)"/></g><g transform="translate(26.8552,-47.5596) rotate(205.7143)"><use href="#O" class="c2" data-layer="7" transform="translate(112,490.7041)"/><use href="#O" class="c0" data-layer="7" transform="translate(80,490.7041)"/><use href="#O" class="c1" data-layer="7" transform="translate(48,490.7041)"/><use href="#O" class="c2" data-layer="7" transform="translate(16,490.7041)"/><use href="#O" class="c0" data-layer="7" transform="translate(-16,490.7041)"/><use href="#O" class="c1" data-layer="7" transform="translate(-48,490.7041)"/><use href="#O" class="c2" data-layer="7" transform="translate(-80,490.7041)"/><use href="#O" class="c0" data-layer="7" transform="translate(-112,490.7041)"/></g></g><g><g transform="translate(26.8552,-22.541) rotate(231.4286)"><use href="#O" class="c0" data-layer="0" transform="translate(0,0)"/></g><g transform="translate(26.8552,-22.541) rotate(231.4286)"><use href="#O" class="c2" data-layer="1" transform="translate(16,70.1006)"/><use href="#O" class="c1" data-layer="1" transform="translate(-16,70.1006)"/></g><g transform="translate(26.8552,-22.541) rotate(231.4286)"><use href="#O" class="c1" data-layer="2" transform="translate(32,140.2012)"/><use href="#O" class="c0" data-layer="2" transform="translate(0,140.2012)"/><use href="#O" class="c2" data-layer="2" transform="translate(-32,140.2012)"/></g><g transform="translate(26.8552,-22.541) rotate(231.4286)"><use href="#O" class="c0" data-layer="3" transform="translate(48,210.3017)"/><use href="#O" class="c2" data-layer="3" transform="translate(16,210.3017)"/><use href="#O" class="c1" data-layer="3" transform="translate(-16,210.3017)"/><use href="#O" class="c0" data-layer="3" transform="translate(-48,210.3017)"/></g><g transform="translate(26.8552,-22.541) rotate(231.4286)"><use href="#O" class="c2" data-layer="4" transform="translate(64,280.4023)"/><use href="#O" class="c1" data-layer="4" transform="translate(32,280.4023)"/><use href="#O" class="c0" data-layer="4" transform="translate(0,280.4023)"/><use href="#O" class="c2" data-layer="4" transform="translate(-32,280.4023)"/><use href="#O" class="c1" data-layer="4" transform="translate(-64,280.4023)"/></g><g transform="translate(26.8552,-22.541) rotate(231.4286)"><use href="#O" class="c1" data-layer="5" transform="translate(80,350.5029)"/><use href="#O" class="c0" data-layer="5" transform="translate(48,350.5029)"/><use href="#O" class="c2" data-layer="5" transform="translate(16,350.5029)"/><use href="#O" class="c1" data-layer="5" transform="translate(-16,350.5029)"/><use href="#O" class="c0" data-layer="5" transform="translate(-48,350.5029)"/><use href="#O" class="c2" data-layer="5" transform="translate(-80,350.5029)"/></g><g transform="translate(26.8552,-22.541) rotate(231.4286)"><use href="#O" class="c0" data-layer="6" transform="translate(96,420.6035)"/><use href="#O" class="c2" data-layer="6" transform="translate(64,420.6035)"/><use href="#O" class="c1" data-layer="6" transform="translate(32,420.6035)"/><use href="#O" class="c0" data-layer="6" transform="translate(0,420.6035)"/><use href="#O" class="c2" data-layer="6" transform="translate(-32,420.6035)"/><use href="#O" class="c1" data-layer="6" transform="translate(-64,420.6035)"/><use href="#O" class="c0" data-layer="6" transform="translate(-96,420.6035)"/></g><g transform="translate(26.8552,-22.541) rotate(231.4286)"><use href="#O" class="c2" data-layer="7" transform="translate(112,490.7041)"/><use href="#O" class="c1" data-layer="7" transform="translate(80,490.7041)"/><use href="#O" class="c0" data-layer="7" transform="translate(48,490.7041)"/><use href="#O" class="c2" data-layer="7" transform="translate(16,490.7041)"/><use href="#O" class="c1" data-layer="7" transform="translate(-16,490.7041)"/><use href="#O" class="c0" data-layer="7" transform="translate(-48,490.7041)"/><use href="#O" class="c2" data-layer="7" transform="translate(-80,490.7041)"/><use href="#O" class="c1" data-layer="7" transform="translate(-112,490.7041)"/></g></g><g><g transform="translate(16,-0) rotate(257.1429)"><use href="#O" class="c1" data-layer="0" transform="translate(0,0)"/></g><g transform="translate(16,-0) rotate(257.1429)"><use href="#O" class="c2" data-layer="1" transform="translate(16,70.1006)"/><use href="#O" class="c0" data-layer="1" transform="translate(-16,70.1006)"/></g><g transform="translate(16,-0) rotate(257.1429)"><use href="#O" class="c0" data-layer="2" transform="translate(32,140.2012)"/><use href="#O" class="c1" data-layer="2" transform="translate(0,140.2012)"/><use href="#O" class="c2" data-layer="2" transform="translate(-32,140.2012)"/></g><g transform="translate(16,-0) rotate(257.1429)"><use href="#O" class="c1" data-layer="3" transform="translate(48,210.3017)"/><use href="#O" class="c2" data-layer="3" transform="translate(16,210.3017)"/><use href="#O" class="c0" data-layer="3" transform="translate(-16,210.3017)"/><use href="#O" class="c1" data-layer="3" transform="translate(-48,210.3017)"/></g><g transform="translate(16,-0) rotate(257.1429)"><use href="#O" class="c2" data-layer="4" transform="translate(64,280.4023)"/><use href="#O" class="c0" data-layer="4" transform="translate(32,280.4023)"/><use href="#O" class="c1" data-layer="4" transform="translate(0,280.4023)"/><use href="#O" class="c2" data-layer="4" transform="translate(-32,280.4023)"/><use href="#O" class="c0" data-layer="4" transform="translate(-64,280.4023)"/></g><g transform="translate(16,-0) rotate(257.1429)"><use href="#O" class="c0" data-layer="5" transform="translate(80,350.5029)"/><use href="#O" class="c1" data-layer="5" transform="translate(48,350.5029)"/><use href="#O" class="c2" data-layer="5" transform="translate(16,350.5029)"/><use href="#O" class="c0" data-layer="5" transform="translate(-16,350.5029)"/><use href="#O" class="c1" data-layer="5" transform="translate(-48,350.5029)"/><use href="#O" class="c2" data-layer="5" transform="translate(-80,350.5029)"/></g><g transform="translate(16,-0) rotate(257.1429)"><use href="#O" class="c1" data-layer="6" transform="translate(96,420.6035)"/><use href="#O" class="c2" data-layer="6" transform="translate(64,420.6035)"/><use href="#O" class="c0" data-layer="6" transform="translate(32,420.6035)"/><use href="#O" class="c1" data-layer="6" transform="translate(0,420.6035)"/><use href="#O" class="c2" data-layer="6" transform="translate(-32,420.6035)"/><use href="#O" class="c0" data-layer="6" transform="translate(-64,420.6035)"/><use href="#O" class="c1" data-layer="6" transform="translate(-96,420.6035)"/></g><g transform="translate(16,-0) rotate(257.1429)"><use href="#O" class="c2" data-layer="7" transform="translate(112,490.7041)"/><use href="#O" class="c0" data-layer="7" transform="translate(80,490.7041)"/><use href="#O" class="c1" data-layer="7" transform="translate(48,490.7041)"/><use href="#O" class="c2" data-layer="7" transform="translate(16,490.7041)"/><use href="#O" class="c0" data-layer="7" transform="translate(-16,490.7041)"/><use href="#O" class="c1" data-layer="7" transform="translate(-48,490.7041)"/><use href="#O" class="c2" data-layer="7" transform="translate(-80,490.7041)"/><use href="#O" class="c0" data-layer="7" transform="translate(-112,490.7041)"/></g></g><g><g transform="translate(68.343,15.5988) rotate(282.8571)"><use href="#O" class="c2" data-layer="0" transform="translate(0,0)"/></g><g transform="translate(68.343,15.5988) rotate(282.8571)"><use href="#O" class="c1" data-layer="1" transform="translate(16,70.1006)"/><use href="#O" class="c0" data-layer="1" transform="translate(-16,70.1006)"/></g><g transform="translate(68.343,15.5988) rotate(282.8571)"><use href="#O" class="c0" data-layer="2" transform="translate(32,140.2012)"/><use href="#O" class="c2" data-layer="2" transform="translate(0,140.2012)"/><use href="#O" class="c1" data-layer="2" transform="translate(-32,140.2012)"/></g><g transform="translate(68.343,15.5988) rotate(282.8571)"><use href="#O" class="c2" data-layer="3" transform="translate(48,210.3017)"/><use href="#O" class="c1" data-layer="3" transform="translate(16,210.3017)"/><use href="#O" class="c0" data-layer="3" transform="translate(-16,210.3017)"/><use href="#O" class="c2" data-layer="3" transform="translate(-48,210.3017)"/></g><g transform="translate(68.343,15.5988) rotate(282.8571)"><use href="#O" class="c1" data-layer="4" transform="translate(64,280.4023)"/><use href="#O" class="c0" data-layer="4" transform="translate(32,280.4023)"/><use href="#O" class="c2" data-layer="4" transform="translate(0,280.4023)"/><use href="#O" class="c1" data-layer="4" transform="translate(-32,280.4023)"/><use href="#O" class="c0" data-layer="4" transform="translate(-64,280.4023)"/></g><g transform="translate(68.343,15.5988) rotate(282.8571)"><use href="#O" class="c0" data-layer="5" transform="translate(80,350.5029)"/><use href="#O" class="c2" data-layer="5" transform="translate(48,350.5029)"/><use href="#O" class="c1" data-layer="5" transform="translate(16,350.5029)"/><use href="#O" class="c0" data-layer="5" transform="translate(-16,350.5029)"/><use href="#O" class="c2" data-layer="5" transform="translate(-48,350.5029)"/><use href="#O" class="c1" data-layer="5" transform="translate(-80,350.5029)"/></g><g transform="translate(68.343,15.5988) rotate(282.8571)"><use href="#O" class="c2" data-layer="6" transform="translate(96,420.6035)"/><use href="#O" class="c1" data-layer="6" transform="translate(64,420.6035)"/><use href="#O" class="c0" data-layer="6" transform="translate(32,420.6035)"/><use href="#O" class="c2" data-layer="6" transform="translate(0,420.6035)"/><use href="#O" class="c1" data-layer="6" transform="translate(-32,420.6035)"/><use href="#O" class="c0" data-layer="6" transform="translate(-64,420.6035)"/><use href="#O" class="c2" data-layer="6" transform="translate(-96,420.6035)"/></g><g transform="translate(68.343,15.5988) rotate(282.8571)"><use href="#O" class="c1" data-layer="7" transform="translate(112,490.7041)"/><use href="#O" class="c0" data-layer="7" transform="translate(80,490.7041)"/><use href="#O" class="c2" data-layer="7" transform="translate(48,490.7041)"/><use href="#O" class="c1" data-layer="7" transform="translate(16,490.7041)"/><use href="#O" class="c0" data-layer="7" transform="translate(-16,490.7041)"/><use href="#O" class="c2" data-layer="7" transform="translate(-48,490.7041)"/><use href="#O" class="c1" data-layer="7" transform="translate(-80,490.7041)"/><use href="#O" class="c0" data-layer="7" transform="translate(-112,490.7041)"/></g></g><g><g transform="translate(43.9517,21.166) rotate(308.5714)"><use href="#O" class="c0" data-layer="0" transform="translate(0,0)"/></g><g transform="translate(43.9517,21.166) rotate(308.5714)"><use href="#O" class="c1" data-layer="1" transform="translate(16,70.1006)"/><use href="#O" class="c2" data-layer="1" transform="translate(-16,70.1006)"/></g><g transform="translate(43.9517,21.166) rotate(308.5714)"><use href="#O" class="c2" data-layer="2" transform="translate(32,140.2012)"/><use href="#O" class="c0" data-layer="2" transform="translate(0,140.2012)"/><use href="#O" class="c1" data-layer="2" transform="translate(-32,140.2012)"/></g><g transform="translate(43.9517,21.166) rotate(308.5714)"><use href="#O" class="c0" data-layer="3" transform="translate(48,210.3017)"/><use href="#O" class="c1" data-layer="3" transform="translate(16,210.3017)"/><use href="#O" class="c2" data-layer="3" transform="translate(-16,210.3017)"/><use href="#O" class="c0" data-layer="3" transform="translate(-48,210.3017)"/></g><g transform="translate(43.9517,21.166) rotate(308.5714)"><use href="#O" class="c1" data-layer="4" transform="translate(64,280.4023)"/><use href="#O" class="c2" data-layer="4" transform="translate(32,280.4023)"/><use href="#O" class="c0" data-layer="4" transform="translate(0,280.4023)"/><use href="#O" class="c1" data-layer="4" transform="translate(-32,280.4023)"/><use href="#O" class="c2" data-layer="4" transform="translate(-64,280.4023)"/></g><g transform="translate(43.9517,21.166) rotate(308.5714)"><use href="#O" class="c2" data-layer="5" transform="translate(80,350.5029)"/><use href="#O" class="c0" data-layer="5" transform="translate(48,350.5029)"/><use href="#O" class="c1" data-layer="5" transform="translate(16,350.5029)"/><use href="#O" class="c2" data-layer="5" transform="translate(-16,350.5029)"/><use href="#O" class="c0" data-layer="5" transform="translate(-48,350.5029)"/><use href="#O" class="c1" data-layer="5" transform="translate(-80,350.5029)"/></g><g transform="translate(43.9517,21.166) rotate(308.5714)"><use href="#O" class="c0" data-layer="6" transform="translate(96,420.6035)"/><use href="#O" class="c1" data-layer="6" transform="translate(64,420.6035)"/><use href="#O" class="c2" data-layer="6" transform="translate(32,420.6035)"/><use href="#O" class="c0" data-layer="6" transform="translate(0,420.6035)"/><use href="#O" class="c1" data-layer="6" transform="translate(-32,420.6035)"/><use href="#O" class="c2" data-layer="6" transform="translate(-64,420.6035)"/><use href="#O" class="c0" data-layer="6" transform="translate(-96,420.6035)"/></g><g transform="translate(43.9517,21.166) rotate(308.5714)"><use href="#O" class="c1" data-layer="7" transform="translate(112,490.7041)"/><use href="#O" class="c2" data-layer="7" transform="translate(80,490.7041)"/><use href="#O" class="c0" data-layer="7" transform="translate(48,490.7041)"/><use href="#O" class="c1" data-layer="7" transform="translate(16,490.7041)"/><use href="#O" class="c2" data-layer="7" transform="translate(-16,490.7041)"/><use href="#O" class="c0" data-layer="7" transform="translate(-48,490.7041)"/><use href="#O" class="c1" data-layer="7" transform="translate(-80,490.7041)"/><use href="#O" class="c2" data-layer="7" transform="translate(-112,490.7041)"/></g></g><g><g transform="translate(19.5603,15.5988) rotate(334.2857)"><use href="#O" class="c2" data-layer="0" transform="translate(0,0)"/></g><g transform="translate(19.5603,15.5988) rotate(334.2857)"><use href="#O" class="c1" data-layer="1" transform="translate(16,70.1006)"/><use href="#O" class="c0" data-layer="1" transform="translate(-16,70.1006)"/></g><g transform="translate(19.5603,15.5988) rotate(334.2857)"><use href="#O" class="c0" data-layer="2" transform="translate(32,140.2012)"/><use href="#O" class="c2" data-layer="2" transform="translate(0,140.2012)"/><use href="#O" class="c1" data-layer="2" transform="translate(-32,140.2012)"/></g><g transform="translate(19.5603,15.5988) rotate(334.2857)"><use href="#O" class="c2" data-layer="3" transform="translate(48,210.3017)"/><use href="#O" class="c1" data-layer="3" transform="translate(16,210.3017)"/><use href="#O" class="c0" data-layer="3" transform="translate(-16,210.3017)"/><use href="#O" class="c2" data-layer="3" transform="translate(-48,210.3017)"/></g><g transform="translate(19.5603,15.5988) rotate(334.2857)"><use href="#O" class="c1" data-layer="4" transform="translate(64,280.4023)"/><use href="#O" class="c0" data-layer="4" transform="translate(32,280.4023)"/><use href="#O" class="c2" data-layer="4" transform="translate(0,280.4023)"/><use href="#O" class="c1" data-layer="4" transform="translate(-32,280.4023)"/><use href="#O" class="c0" data-layer="4" transform="translate(-64,280.4023)"/></g><g transform="translate(19.5603,15.5988) rotate(334.2857)"><use href="#O" class="c0" data-layer="5" transform="translate(80,350.5029)"/><use href="#O" class="c2" data-layer="5" transform="translate(48,350.5029)"/><use href="#O" class="c1" data-layer="5" transform="translate(16,350.5029)"/><use href="#O" class="c0" data-layer="5" transform="translate(-16,350.5029)"/><use href="#O" class="c2" data-layer="5" transform="translate(-48,350.5029)"/><use href="#O" class="c1" data-layer="5" transform="translate(-80,350.5029)"/></g><g transform="translate(19.5603,15.5988) rotate(334.2857)"><use href="#O" class="c2" data-layer="6" transform="translate(96,420.6035)"/><use href="#O" class="c1" data-layer="6" transform="translate(64,420.6035)"/><use href="#O" class="c0" data-layer="6" transform="translate(32,420.6035)"/><use href="#O" class="c2" data-layer="6" transform="translate(0,420.6035)"/><use href="#O" class="c1" data-layer="6" transform="translate(-32,420.6035)"/><use href="#O" class="c0" data-layer="6" transform="translate(-64,420.6035)"/><use href="#O" class="c2" data-layer="6" transform="translate(-96,420.6035)"/></g><g transform="translate(19.5603,15.5988) rotate(334.2857)"><use href="#O" class="c1" data-layer="7" transform="translate(112,490.7041)"/><use href="#O" class="c0" data-layer="7" transform="translate(80,490.7041)"/><use href="#O" class="c2" data-layer="7" transform="translate(48,490.7041)"/><use href="#O" class="c1" data-layer="7" transform="translate(16,490.7041)"/><use href="#O" class="c0" data-layer="7" transform="translate(-16,490.7041)"/><use href="#O" class="c2" data-layer="7" transform="translate(-48,490.7041)"/><use href="#O" class="c1" data-layer="7" transform="translate(-80,490.7041)"/><use href="#O" class="c0" data-layer="7" transform="translate(-112,490.7041)"/></g></g></g></g></svg>