<svg xmlns="http://www.w3.org/2000/svg" preserveAspectRatio="xMidYMid slice" viewBox="0 0 800 800"><defs><path id="E" d="M0 0l20,0l4.4504,19.4986l-18.0194,8.6777l12.4698,15.6366l-12.4698,15.6366l18.0194,8.6777l-4.4504,19.4986l-20,0"/><path id="F" d="M0 0l20,0l4.4504,19.4986l-18.0194,8.6777l12.4698,15.6366l-12.4698,15.6366l18.0194,8.6777l-4.4504,19.4986l-20,0l-20,0l4.4504,-19.4986l-18.0194,-8.6777l12.4698,-15.6366l-12.4698,-15.6366l18.0194,-8.6777l-4.4504,-19.4986l20,0Z"/></defs><g transform="translate(400 400) scale(1 -1)"><g stroke-width="2" stroke="rgb(23 23 23)" fill="none"><g><g stroke-dasharray="960 9999" stroke-dashoffset="960"><animate attributeName="stroke-dashoffset" from="960" to="0" begin="1s" dur="0.96s" repeatCount="1" fill="freeze"/><use href="#E" transform="translate(0,0) rotate(0) translate(0,0)"/></g><g stroke-dasharray="960 9999" stroke-dashoffset="960"><animate attributeName="stroke-dashoffset" from="960" to="0" begin="1.16s" dur="0.96s" repeatCount="1" fill="freeze"/><use href="#E" transform="translate(0,0) rotate(0) translate(20,87.6257)"/><use href="#E" transform="translate(0,0) rotate(0) translate(-20,87.6257)"/></g><g stroke-dasharray="960 9999" stroke-dashoffset="960"><animate attributeName="stroke-dashoffset" from="960" to="0" begin="1.32s" dur="0.96s" repeatCount="1" fill="freeze"/><use href="#E" transform="translate(0,0) rotate(0) translate(40,175.2515)"/><use href="#E" transform="translate(0,0) rotate(0) translate(0,175.2515)"/><use href="#E" transform="translate(0,0) rotate(0) translate(-40,175.2515)"/></g><g stroke-dasharray="960 9999" stroke-dashoffset="960"><animate attributeName="stroke-dashoffset" from="960" to="0" begin="1.48s" dur="0.96s" repeatCount="1" fill="freeze"/><use href="#E" transform="translate(0,0) rotate(0) translate(60,262.8772)"/><use href="#E" transform="translate(0,0) rotate(0) translate(20,262.8772)"/><use href="#E" transform="translate(0,0) rotate(0) translate(-20,262.8772)"/><use href="#E" transform="translate(0,0) rotate(0) translate(-60,262.8772)"/></g><g stroke-dasharray="960 9999" stroke-dashoffset="960"><animate attributeName="stroke-dashoffset" from="960" to="0" begin="1.64s" dur="0.96s" repeatCount="1" fill="freeze"/><use href="#E" transform="translate(0,0) rotate(0) translate(80,350.5029)"/><use href="#E" transform="translate(0,0) rotate(0) translate(40,350.5029)"/><use href="#E" transform="translate(0,0) rotate(0) translate(0,350.5029)"/><use href="#E" transform="translate(0,0) rotate(0) translate(-40,350.5029)"/><use href="#E" transform="translate(0,0) rotate(0) translate(-80,350.5029)"/></g><g stroke-dasharray="960 9999" stroke-dashoffset="960"><animate attributeName="stroke-dashoffset" from="960" to="0" begin="1.8s" dur="0.96s" repeatCount="1" fill="freeze"/><use href="#E" transform="translate(0,0) rotate(0) translate(100,438.1286)"/><use href="#E" transform="translate(0,0) rotate(0) translate(60,438.1286)"/><use href="#E" transform="translate(0,0) rotate(0) translate(20,438.1286)"/><use href="#E" transform="translate(0,0) rotate(0) translate(-20,438.1286)"/><use href="#E" transform="translate(0,0) rotate(0) translate(-60,438.1286)"/><use href="#E" transform="translate(0,0) rotate(0) translate(-100,438.1286)"/></g></g><g><g stroke-dasharray="960 9999" stroke-dashoffset="960"><animate attributeName="stroke-dashoffset" from="960" to="0" begin="1.1s" dur="0.96s" repeatCount="1" fill="freeze"/><use href="#E" transform="translate(-33.569,59.4495) rotate(25.7143) translate(0,0)"/></g><g stroke-dasharray="960 9999" stroke-dashoffset="960"><animate attributeName="stroke-dashoffset" from="960" to="0" begin="1.26s" dur="0.96s" repeatCount="1" fill="freeze"/><use href="#E" transform="translate(-33.569,59.4495) rotate(25.7143) translate(20,87.6257)"/><use href="#E" transform="translate(-33.569,59.4495) rotate(25.7143) translate(-20,87.6257)"/></g><g stroke-dasharray="960 9999" stroke-dashoffset="960"><animate attributeName="stroke-dashoffset" from="960" to="0" begin="1.42s" dur="0.96s" repeatCount="1" fill="freeze"/><use href="#E" transform="translate(-33.569,59.4495) rotate(25.7143) translate(40,175.2515)"/><use href="#E" transform="translate(-33.569,59.4495) rotate(25.7143) translate(0,175.2515)"/><use href="#E" transform="translate(-33.569,59.4495) rotate(25.7143) translate(-40,175.2515)"/></g><g stroke-dasharray="960 9999" stroke-dashoffset="960"><animate attributeName="stroke-dashoffset" from="960" to="0" begin="1.58s" dur="0.96s" repeatCount="1" fill="freeze"/><use href="#E" transform="translate(-33.569,59.4495) rotate(25.7143) translate(60,262.8772)"/><use href="#E" transform="translate(-33.569,59.4495) rotate(25.7143) translate(20,262.8772)"/><use href="#E" transform="translate(-33.569,59.4495) rotate(25.7143) translate(-20,262.8772)"/><use href="#E" transform="translate(-33.569,59.4495) rotate(25.7143) translate(-60,262.8772)"/></g><g stroke-dasharray="960 9999" stroke-dashoffset="960"><animate attributeName="stroke-dashoffset" from="960" to="0" begin="1.74s" dur="0.96s" repeatCount="1" fill="freeze"/><use href="#E" transform="translate(-33.569,59.4495) rotate(25.7143) translate(80,350.5029)"/><use href="#E" transform="translate(-33.569,59.4495) rotate(25.7143) translate(40,350.5029)"/><use href="#E" transform="translate(-33.569,59.4495) rotate(25.7143) translate(0,350.5029)"/><use href="#E" transform="translate(-33.569,59.4495) rotate(25.7143) translate(-40,350.5029)"/><use href="#E" transform="translate(-33.569,59.4495) rotate(25.7143) translate(-80,350.5029)"/></g><g stroke-dasharray="960 9999" stroke-dashoffset="960"><animate attributeName="stroke-dashoffset" from="960" to="0" begin="1.9s" dur="0.96s" repeatCount="1" fill="freeze"/><use href="#E" transform="translate(-33.569,59.4495) rotate(25.7143) translate(100,438.1286)"/><use href="#E" transform="translate(-33.569,59.4495) rotate(25.7143) translate(60,438.1286)"/><use href="#E" transform="translate(-33.569,59.4495) rotate(25.7143) translate(20,438.1286)"/><use href="#E" transform="translate(-33.569,59.4495) rotate(25.7143) translate(-20,438.1286)"/><use href="#E" transform="translate(-33.569,59.4495) rotate(25.7143) translate(-60,438.1286)"/><use href="#E" transform="translate(-33.569,59.4495) rotate(25.7143) translate(-100,438.1286)"/></g></g><g><g stroke-dasharray="960 9999" stroke-dashoffset="960"><animate attributeName="stroke-dashoffset" from="960" to="0" begin="1.06s" dur="0.96s" repeatCount="1" fill="freeze"/><use href="#E" transform="translate(-33.569,28.1762) rotate(51.4286) translate(0,0)"/></g><g stroke-dasharray="960 9999" stroke-dashoffset="960"><animate attributeName="stroke-dashoffset" from="960" to="0" begin="1.22s" dur="0.96s" repeatCount="1" fill="freeze"/><use href="#E" transform="translate(-33.569,28.1762) rotate(51.4286) translate(20,87.6257)"/><use href="#E" transform="translate(-33.569,28.1762) rotate(51.4286) translate(-20,87.6257)"/></g><g stroke-dasharray="960 9999" stroke-dashoffset="960"><animate attributeName="stroke-dashoffset" from="960" to="0" begin="1.38s" dur="0.96s" repeatCount="1" fill="freeze"/><use href="#E" transform="translate(-33.569,28.1762) rotate(51.4286) translate(40,175.2515)"/><use href="#E" transform="translate(-33.569,28.1762) rotate(51.4286) translate(0,175.2515)"/><use href="#E" transform="translate(-33.569,28.1762) rotate(51.4286) translate(-40,175.2515)"/></g><g stroke-dasharray="960 9999" stroke-dashoffset="960"><animate attributeName="stroke-dashoffset" from="960" to="0" begin="1.54s" dur="0.96s" repeatCount="1" fill="freeze"/><use href="#E" transform="translate(-33.569,28.1762) rotate(51.4286) translate(60,262.8772)"/><use href="#E" transform="translate(-33.569,28.1762) rotate(51.4286) translate(20,262.8772)"/><use href="#E" transform="translate(-33.569,28.1762) rotate(51.4286) translate(-20,262.8772)"/><use href="#E" transform="translate(-33.569,28.1762) rotate(51.4286) translate(-60,262.8772)"/></g><g stroke-dasharray="960 9999" stroke-dashoffset="960"><animate attributeName="stroke-dashoffset" from="960" to="0" begin="1.7s" dur="0.96s" repeatCount="1" fill="freeze"/><use href="#E" transform="translate(-33.569,28.1762) rotate(51.4286) translate(80,350.5029)"/><use href="#E" transform="translate(-33.569,28.1762) rotate(51.4286) translate(40,350.5029)"/><use href="#E" transform="translate(-33.569,28.1762) rotate(51.4286) translate(0,350.5029)"/><use href="#E" transform="translate(-33.569,28.1762) rotate(51.4286) translate(-40,350.5029)"/><use href="#E" transform="translate(-33.569,28.1762) rotate(51.4286) translate(-80,350.5029)"/></g><g stroke-dasharray="960 9999" stroke-dashoffset="960"><animate attributeName="stroke-dashoffset" from="960" to="0" begin="1.86s" dur="0.96s" repeatCount="1" fill="freeze"/><use href="#E" transform="translate(-33.569,28.1762) rotate(51.4286) translate(100,438.1286)"/><use href="#E" transform="translate(-33.569,28.1762) rotate(51.4286) translate(60,438.1286)"/><use href="#E" transform="translate(-33.569,28.1762) rotate(51.4286) translate(20,438.1286)"/><use href="#E" transform="translate(-33.569,28.1762) rotate(51.4286) translate(-20,438.1286)"/><use href="#E" transform="translate(-33.569,28.1762) rotate(51.4286) translate(-60,438.1286)"/><use href="#E" transform="translate(-33.569,28.1762) rotate(51.4286) translate(-100,438.1286)"/></g></g><g><g stroke-dasharray="960 9999" stroke-dashoffset="960"><animate attributeName="stroke-dashoffset" from="960" to="0" begin="1.02s" dur="0.96s" repeatCount="1" fill="freeze"/><use href="#E" transform="translate(-20,0) rotate(77.1429) translate(0,0)"/></g><g stroke-dasharray="960 9999" stroke-dashoffset="960"><animate attributeName="stroke-dashoffset" from="960" to="0" begin="1.18s" dur="0.96s" repeatCount="1" fill="freeze"/><use href="#E" transform="translate(-20,0) rotate(77.1429) translate(20,87.6257)"/><use href="#E" transform="translate(-20,0) rotate(77.1429) translate(-20,87.6257)"/></g><g stroke-dasharray="960 9999" stroke-dashoffset="960"><animate attributeName="stroke-dashoffset" from="960" to="0" begin="1.34s" dur="0.96s" repeatCount="1" fill="freeze"/><use href="#E" transform="translate(-20,0) rotate(77.1429) translate(40,175.2515)"/><use href="#E" transform="translate(-20,0) rotate(77.1429) translate(0,175.2515)"/><use href="#E" transform="translate(-20,0) rotate(77.1429) translate(-40,175.2515)"/></g><g stroke-dasharray="960 9999" stroke-dashoffset="960"><animate attributeName="stroke-dashoffset" from="960" to="0" begin="1.5s" dur="0.96s" repeatCount="1" fill="freeze"/><use href="#E" transform="translate(-20,0) rotate(77.1429) translate(60,262.8772)"/><use href="#E" transform="translate(-20,0) rotate(77.1429) translate(20,262.8772)"/><use href="#E" transform="translate(-20,0) rotate(77.1429) translate(-20,262.8772)"/><use href="#E" transform="translate(-20,0) rotate(77.1429) translate(-60,262.8772)"/></g><g stroke-dasharray="960 9999" stroke-dashoffset="960"><animate attributeName="stroke-dashoffset" from="960" to="0" begin="1.66s" dur="0.96s" repeatCount="1" fill="freeze"/><use href="#E" transform="translate(-20,0) rotate(77.1429) translate(80,350.5029)"/><use href="#E" transform="translate(-20,0) rotate(77.1429) translate(40,350.5029)"/><use href="#E" transform="translate(-20,0) rotate(77.1429) translate(0,350.5029)"/><use href="#E" transform="translate(-20,0) rotate(77.1429) translate(-40,350.5029)"/><use href="#E" transform="translate(-20,0) rotate(77.1429) translate(-80,350.5029)"/></g><g stroke-dasharray="960 9999" stroke-dashoffset="960"><animate attributeName="stroke-dashoffset" from="960" to="0" begin="1.82s" dur="0.96s" repeatCount="1" fill="freeze"/><use href="#E" transform="translate(-20,0) rotate(77.1429) translate(100,438.1286)"/><use href="#E" transform="translate(-20,0) rotate(77.1429) translate(60,438.1286)"/><use href="#E" transform="translate(-20,0) rotate(77.1429) translate(20,438.1286)"/><use href="#E" transform="translate(-20,0) rotate(77.1429) translate(-20,438.1286)"/><use href="#E" transform="translate(-20,0) rotate(77.1429) translate(-60,438.1286)"/><use href="#E" transform="translate(-20,0) rotate(77.1429) translate(-100,438.1286)"/></g></g><g><g stroke-dasharray="960 9999" stroke-dashoffset="960"><animate attributeName="stroke-dashoffset" from="960" to="0" begin="1.12s" dur="0.96s" repeatCount="1" fill="freeze"/><use href="#E" transform="translate(-85.4288,-19.4986) rotate(102.8571) translate(0,0)"/></g><g stroke-dasharray="960 9999" stroke-dashoffset="960"><animate attributeName="stroke-dashoffset" from="960" to="0" begin="1.28s" dur="0.96s" repeatCount="1" fill="freeze"/><use href="#E" transform="translate(-85.4288,-19.4986) rotate(102.8571) translate(20,87.6257)"/><use href="#E" transform="translate(-85.4288,-19.4986) rotate(102.8571) translate(-20,87.6257)"/></g><g stroke-dasharray="960 9999" stroke-dashoffset="960"><animate attributeName="stroke-dashoffset" from="960" to="0" begin="1.44s" dur="0.96s" repeatCount="1" fill="freeze"/><use href="#E" transform="translate(-85.4288,-19.4986) rotate(102.8571) translate(40,175.2515)"/><use href="#E" transform="translate(-85.4288,-19.4986) rotate(102.8571) translate(0,175.2515)"/><use href="#E" transform="translate(-85.4288,-19.4986) rotate(102.8571) translate(-40,175.2515)"/></g><g stroke-dasharray="960 9999" stroke-dashoffset="960"><animate attributeName="stroke-dashoffset" from="960" to="0" begin="1.6s" dur="0.96s" repeatCount="1" fill="freeze"/><use href="#E" transform="translate(-85.4288,-19.4986) rotate(102.8571) translate(60,262.8772)"/><use href="#E" transform="translate(-85.4288,-19.4986) rotate(102.8571) translate(20,262.8772)"/><use href="#E" transform="translate(-85.4288,-19.4986) rotate(102.8571) translate(-20,262.8772)"/><use href="#E" transform="translate(-85.4288,-19.4986) rotate(102.8571) translate(-60,262.8772)"/></g><g stroke-dasharray="960 9999" stroke-dashoffset="960"><animate attributeName="stroke-dashoffset" from="960" to="0" begin="1.76s" dur="0.96s" repeatCount="1" fill="freeze"/><use href="#E" transform="translate(-85.4288,-19.4986) rotate(102.8571) translate(80,350.5029)"/><use href="#E" transform="translate(-85.4288,-19.4986) rotate(102.8571) translate(40,350.5029)"/><use href="#E" transform="translate(-85.4288,-19.4986) rotate(102.8571) translate(0,350.5029)"/><use href="#E" transform="translate(-85.4288,-19.4986) rotate(102.8571) translate(-40,350.5029)"/><use href="#E" transform="translate(-85.4288,-19.4986) rotate(102.8571) translate(-80,350.5029)"/></g><g stroke-dasharray="960 9999" stroke-dashoffset="960"><animate attributeName="stroke-dashoffset" from="960" to="0" begin="1.92s" dur="0.96s" repeatCount="1" fill="freeze"/><use href="#E" transform="translate(-85.4288,-19.4986) rotate(102.8571) translate(100,438.1286)"/><use href="#E" transform="translate(-85.4288,-19.4986) rotate(102.8571) translate(60,438.1286)"/><use href="#E" transform="translate(-85.4288,-19.4986) rotate(102.8571) translate(20,438.1286)"/><use href="#E" transform="translate(-85.4288,-19.4986) rotate(102.8571) translate(-20,438.1286)"/><use href="#E" transform="translate(-85.4288,-19.4986) rotate(102.8571) translate(-60,438.1286)"/><use href="#E" transform="translate(-85.4288,-19.4986) rotate(102.8571) translate(-100,438.1286)"/></g></g><g><g stroke-dasharray="960 9999" stroke-dashoffset="960"><animate attributeName="stroke-dashoffset" from="960" to="0" begin="1.08s" dur="0.96s" repeatCount="1" fill="freeze"/><use href="#E" transform="translate(-54.9396,-26.4575) rotate(128.5714) translate(0,0)"/></g><g stroke-dasharray="960 9999" stroke-dashoffset="960"><animate attributeName="stroke-dashoffset" from="960" to="0" begin="1.24s" dur="0.96s" repeatCount="1" fill="freeze"/><use href="#E" transform="translate(-54.9396,-26.4575) rotate(128.5714) translate(20,87.6257)"/><use href="#E" transform="translate(-54.9396,-26.4575) rotate(128.5714) translate(-20,87.6257)"/></g><g stroke-dasharray="960 9999" stroke-dashoffset="960"><animate attributeName="stroke-dashoffset" from="960" to="0" begin="1.4s" dur="0.96s" repeatCount="1" fill="freeze"/><use href="#E" transform="translate(-54.9396,-26.4575) rotate(128.5714) translate(40,175.2515)"/><use href="#E" transform="translate(-54.9396,-26.4575) rotate(128.5714) translate(0,175.2515)"/><use href="#E" transform="translate(-54.9396,-26.4575) rotate(128.5714) translate(-40,175.2515)"/></g><g stroke-dasharray="960 9999" stroke-dashoffset="960"><animate attributeName="stroke-dashoffset" from="960" to="0" begin="1.56s" dur="0.96s" repeatCount="1" fill="freeze"/><use href="#E" transform="translate(-54.9396,-26.4575) rotate(128.5714) translate(60,262.8772)"/><use href="#E" transform="translate(-54.9396,-26.4575) rotate(128.5714) translate(20,262.8772)"/><use href="#E" transform="translate(-54.9396,-26.4575) rotate(128.5714) translate(-20,262.8772)"/><use href="#E" transform="translate(-54.9396,-26.4575) rotate(128.5714) translate(-60,262.8772)"/></g><g stroke-dasharray="960 9999" stroke-dashoffset="960"><animate attributeName="stroke-dashoffset" from="960" to="0" begin="1.72s" dur="0.96s" repeatCount="1" fill="freeze"/><use href="#E" transform="translate(-54.9396,-26.4575) rotate(128.5714) translate(80,350.5029)"/><use href="#E" transform="translate(-54.9396,-26.4575) rotate(128.5714) translate(40,350.5029)"/><use href="#E" transform="translate(-54.9396,-26.4575) rotate(128.5714) translate(0,350.5029)"/><use href="#E" transform="translate(-54.9396,-26.4575) rotate(128.5714) translate(-40,350.5029)"/><use href="#E" transform="translate(-54.9396,-26.4575) rotate(128.5714) translate(-80,350.5029)"/></g><g stroke-dasharray="960 9999" stroke-dashoffset="960"><animate attributeName="stroke-dashoffset" from="960" to="0" begin="1.88s" dur="0.96s" repeatCount="1" fill="freeze"/><use href="#E" transform="translate(-54.9396,-26.4575) rotate(128.5714) translate(100,438.1286)"/><use href="#E" transform="translate(-54.9396,-26.4575) rotate(128.5714) translate(60,438.1286)"/><use href="#E" transform="translate(-54.9396,-26.4575) rotate(128.5714) translate(20,438.1286)"/><use href="#E" transform="translate(-54.9396,-26.4575) rotate(128.5714) translate(-20,438.1286)"/><use href="#E" transform="translate(-54.9396,-26.4575) rotate(128.5714) translate(-60,438.1286)"/><use href="#E" transform="translate(-54.9396,-26.4575) rotate(128.5714) translate(-100,438.1286)"/></g></g><g><g stroke-dasharray="960 9999" stroke-dashoffset="960"><animate attributeName="stroke-dashoffset" from="960" to="0" begin="1.04s" dur="0.96s" repeatCount="1" fill="freeze"/><use href="#E" transform="translate(-24.4504,-19.4986) rotate(154.2857) translate(0,0)"/></g><g stroke-dasharray="960 9999" stroke-dashoffset="960"><animate attributeName="stroke-dashoffset" from="960" to="0" begin="1.2s" dur="0.96s" repeatCount="1" fill="freeze"/><use href="#E" transform="translate(-24.4504,-19.4986) rotate(154.2857) translate(20,87.6257)"/><use href="#E" transform="translate(-24.4504,-19.4986) rotate(154.2857) translate(-20,87.6257)"/></g><g stroke-dasharray="960 9999" stroke-dashoffset="960"><animate attributeName="stroke-dashoffset" from="960" to="0" begin="1.36s" dur="0.96s" repeatCount="1" fill="freeze"/><use href="#E" transform="translate(-24.4504,-19.4986) rotate(154.2857) translate(40,175.2515)"/><use href="#E" transform="translate(-24.4504,-19.4986) rotate(154.2857) translate(0,175.2515)"/><use href="#E" transform="translate(-24.4504,-19.4986) rotate(154.2857) translate(-40,175.2515)"/></g><g stroke-dasharray="960 9999" stroke-dashoffset="960"><animate attributeName="stroke-dashoffset" from="960" to="0" begin="1.52s" dur="0.96s" repeatCount="1" fill="freeze"/><use href="#E" transform="translate(-24.4504,-19.4986) rotate(154.2857) translate(60,262.8772)"/><use href="#E" transform="translate(-24.4504,-19.4986) rotate(154.2857) translate(20,262.8772)"/><use href="#E" transform="translate(-24.4504,-19.4986) rotate(154.2857) translate(-20,262.8772)"/><use href="#E" transform="translate(-24.4504,-19.4986) rotate(154.2857) translate(-60,262.8772)"/></g><g stroke-dasharray="960 9999" stroke-dashoffset="960"><animate attributeName="stroke-dashoffset" from="960" to="0" begin="1.68s" dur="0.96s" repeatCount="1" fill="freeze"/><use href="#E" transform="translate(-24.4504,-19.4986) rotate(154.2857) translate(80,350.5029)"/><use href="#E" transform="translate(-24.4504,-19.4986) rotate(154.2857) translate(40,350.5029)"/><use href="#E" transform="translate(-24.4504,-19.4986) rotate(154.2857) translate(0,350.5029)"/><use href="#E" transform="translate(-24.4504,-19.4986) rotate(154.2857) translate(-40,350.5029)"/><use href="#E" transform="translate(-24.4504,-19.4986) rotate(154.2857) translate(-80,350.5029)"/></g><g stroke-dasharray="960 9999" stroke-dashoffset="960"><animate attributeName="stroke-dashoffset" from="960" to="0" begin="1.84s" dur="0.96s" repeatCount="1" fill="freeze"/><use href="#E" transform="translate(-24.4504,-19.4986) rotate(154.2857) translate(100,438.1286)"/><use href="#E" transform="translate(-24.4504,-19.4986) rotate(154.2857) translate(60,438.1286)"/><use href="#E" transform="translate(-24.4504,-19.4986) rotate(154.2857) translate(20,438.1286)"/><use href="#E" transform="translate(-24.4504,-19.4986) rotate(154.2857) translate(-20,438.1286)"/><use href="#E" transform="translate(-24.4504,-19.4986) rotate(154.2857) translate(-60,438.1286)"/><use href="#E" transform="translate(-24.4504,-19.4986) rotate(154.2857) translate(-100,438.1286)"/></g></g><g><g stroke-dasharray="960 9999" stroke-dashoffset="960"><animate attributeName="stroke-dashoffset" from="960" to="0" begin="1s" dur="0.96s" repeatCount="1" fill="freeze"/><use href="#E" transform="translate(0,0) rotate(180) translate(0,0)"/></g><g stroke-dasharray="960 9999" stroke-dashoffset="960"><animate attributeName="stroke-dashoffset" from="960" to="0" begin="1.16s" dur="0.96s" repeatCount="1" fill="freeze"/><use href="#E" transform="translate(0,0) rotate(180) translate(20,87.6257)"/><use href="#E" transform="translate(0,0) rotate(180) translate(-20,87.6257)"/></g><g stroke-dasharray="960 9999" stroke-dashoffset="960"><animate attributeName="stroke-dashoffset" from="960" to="0" begin="1.32s" dur="0.96s" repeatCount="1" fill="freeze"/><use href="#E" transform="translate(0,0) rotate(180) translate(40,175.2515)"/><use href="#E" transform="translate(0,0) rotate(180) translate(0,175.2515)"/><use href="#E" transform="translate(0,0) rotate(180) translate(-40,175.2515)"/></g><g stroke-dasharray="960 9999" stroke-dashoffset="960"><animate attributeName="stroke-dashoffset" from="960" to="0" begin="1.48s" dur="0.96s" repeatCount="1" fill="freeze"/><use href="#E" transform="translate(0,0) rotate(180) translate(60,262.8772)"/><use href="#E" transform="translate(0,0) rotate(180) translate(20,262.8772)"/><use href="#E" transform="translate(0,0) rotate(180) translate(-20,262.8772)"/><use href="#E" transform="translate(0,0) rotate(180) translate(-60,262.8772)"/></g><g stroke-dasharray="960 9999" stroke-dashoffset="960"><animate attributeName="stroke-dashoffset" from="960" to="0" begin="1.64s" dur="0.96s" repeatCount="1" fill="freeze"/><use href="#E" transform="translate(0,0) rotate(180) translate(80,350.5029)"/><use href="#E" transform="translate(0,0) rotate(180) translate(40,350.5029)"/><use href="#E" transform="translate(0,0) rotate(180) translate(0,350.5029)"/><use href="#E" transform="translate(0,0) rotate(180) translate(-40,350.5029)"/><use href="#E" transform="translate(0,0) rotate(180) translate(-80,350.5029)"/></g><g stroke-dasharray="960 9999" stroke-dashoffset="960"><animate attributeName="stroke-dashoffset" from="960" to="0" begin="1.8s" dur="0.96s" repeatCount="1" fill="freeze"/><use href="#E" transform="translate(0,0) rotate(180) translate(100,438.1286)"/><use href="#E" transform="translate(0,0) rotate(180) translate(60,438.1286)"/><use href="#E" transform="translate(0,0) rotate(180) translate(20,438.1286)"/><use href="#E" transform="translate(0,0) rotate(180) translate(-20,438.1286)"/><use href="#E" transform="translate(0,0) rotate(180) translate(-60,438.1286)"/><use href="#E" transform="translate(0,0) rotate(180) translate(-100,438.1286)"/></g></g><g><g stroke-dasharray="960 9999" stroke-dashoffset="960"><animate attributeName="stroke-dashoffset" from="960" to="0" begin="1.1s" dur="0.96s" repeatCount="1" fill="freeze"/><use href="#E" transform="translate(33.569,-59.4495) rotate(205.7143) translate(0,0)"/></g><g stroke-dasharray="960 9999" stroke-dashoffset="960"><animate attributeName="stroke-dashoffset" from="960" to="0" begin="1.26s" dur="0.96s" repeatCount="1" fill="freeze"/><use href="#E" transform="translate(33.569,-59.4495) rotate(205.7143) translate(20,87.6257)"/><use href="#E" transform="translate(33.569,-59.4495) rotate(205.7143) translate(-20,87.6257)"/></g><g stroke-dasharray="960 9999" stroke-dashoffset="960"><animate attributeName="stroke-dashoffset" from="960" to="0" begin="1.42s" dur="0.96s" repeatCount="1" fill="freeze"/><use href="#E" transform="translate(33.569,-59.4495) rotate(205.7143) translate(40,175.2515)"/><use href="#E" transform="translate(33.569,-59.4495) rotate(205.7143) translate(0,175.2515)"/><use href="#E" transform="translate(33.569,-59.4495) rotate(205.7143) translate(-40,175.2515)"/></g><g stroke-dasharray="960 9999" stroke-dashoffset="960"><animate attributeName="stroke-dashoffset" from="960" to="0" begin="1.58s" dur="0.96s" repeatCount="1" fill="freeze"/><use href="#E" transform="translate(33.569,-59.4495) rotate(205.7143) translate(60,262.8772)"/><use href="#E" transform="translate(33.569,-59.4495) rotate(205.7143) translate(20,262.8772)"/><use href="#E" transform="translate(33.569,-59.4495) rotate(205.7143) translate(-20,262.8772)"/><use href="#E" transform="translate(33.569,-59.4495) rotate(205.7143) translate(-60,262.8772)"/></g><g stroke-dasharray="960 9999" stroke-dashoffset="960"><animate attributeName="stroke-dashoffset" from="960" to="0" begin="1.74s" dur="0.96s" repeatCount="1" fill="freeze"/><use href="#E" transform="translate(33.569,-59.4495) rotate(205.7143) translate(80,350.5029)"/><use href="#E" transform="translate(33.569,-59.4495) rotate(205.7143) translate(40,350.5029)"/><use href="#E" transform="translate(33.569,-59.4495) rotate(205.7143) translate(0,350.5029)"/><use href="#E" transform="translate(33.569,-59.4495) rotate(205.7143) translate(-40,350.5029)"/><use href="#E" transform="translate(33.569,-59.4495) rotate(205.7143) translate(-80,350.5029)"/></g><g stroke-dasharray="960 9999" stroke-dashoffset="960"><animate attributeName="stroke-dashoffset" from="960" to="0" begin="1.9s" dur="0.96s" repeatCount="1" fill="freeze"/><use href="#E" transform="translate(33.569,-59.4495) rotate(205.7143) translate(100,438.1286)"/><use href="#E" transform="translate(33.569,-59.4495) rotate(205.7143) translate(60,438.1286)"/><use href="#E" transform="translate(33.569,-59.4495) rotate(205.7143) translate(20,438.1286)"/><use href="#E" transform="translate(33.569,-59.4495) rotate(205.7143) translate(-20,438.1286)"/><use href="#E" transform="translate(33.569,-59.4495) rotate(205.7143) translate(-60,438.1286)"/><use href="#E" transform="translate(33.569,-59.4495) rotate(205.7143) translate(-100,438.1286)"/></g></g><g><g stroke-dasharray="960 9999" stroke-dashoffset="960"><animate attributeName="stroke-dashoffset" from="960" to="0" begin="1.06s" dur="0.96s" repeatCount="1" fill="freeze"/><use href="#E" transform="translate(33.569,-28.1762) rotate(231.4286) translate(0,0)"/></g><g stroke-dasharray="960 9999" stroke-dashoffset="960"><animate attributeName="stroke-dashoffset" from="960" to="0" begin="1.22s" dur="0.96s" repeatCount="1" fill="freeze"/><use href="#E" transform="translate(33.569,-28.1762) rotate(231.4286) translate(20,87.6257)"/><use href="#E" transform="translate(33.569,-28.1762) rotate(231.4286) translate(-20,87.6257)"/></g><g stroke-dasharray="960 9999" stroke-dashoffset="960"><animate attributeName="stroke-dashoffset" from="960" to="0" begin="1.38s" dur="0.96s" repeatCount="1" fill="freeze"/><use href="#E" transform="translate(33.569,-28.1762) rotate(231.4286) translate(40,175.2515)"/><use href="#E" transform="translate(33.569,-28.1762) rotate(231.4286) translate(0,175.2515)"/><use href="#E" transform="translate(33.569,-28.1762) rotate(231.4286) translate(-40,175.2515)"/></g><g stroke-dasharray="960 9999" stroke-dashoffset="960"><animate attributeName="stroke-dashoffset" from="960" to="0" begin="1.54s" dur="0.96s" repeatCount="1" fill="freeze"/><use href="#E" transform="translate(33.569,-28.1762) rotate(231.4286) translate(60,262.8772)"/><use href="#E" transform="translate(33.569,-28.1762) rotate(231.4286) translate(20,262.8772)"/><use href="#E" transform="translate(33.569,-28.1762) rotate(231.4286) translate(-20,262.8772)"/><use href="#E" transform="translate(33.569,-28.1762) rotate(231.4286) translate(-60,262.8772)"/></g><g stroke-dasharray="960 9999" stroke-dashoffset="960"><animate attributeName="stroke-dashoffset" from="960" to="0" begin="1.7s" dur="0.96s" repeatCount="1" fill="freeze"/><use href="#E" transform="translate(33.569,-28.1762) rotate(231.4286) translate(80,350.5029)"/><use href="#E" transform="translate(33.569,-28.1762) rotate(231.4286) translate(40,350.5029)"/><use href="#E" transform="translate(33.569,-28.1762) rotate(231.4286) translate(0,350.5029)"/><use href="#E" transform="translate(33.569,-28.1762) rotate(231.4286) translate(-40,350.5029)"/><use href="#E" transform="translate(33.569,-28.1762) rotate(231.4286) translate(-80,350.5029)"/></g><g stroke-dasharray="960 9999" stroke-dashoffset="960"><animate attributeName="stroke-dashoffset" from="960" to="0" begin="1.86s" dur="0.96s" repeatCount="1" fill="freeze"/><use href="#E" transform="translate(33.569,-28.1762) rotate(231.4286) translate(100,438.1286)"/><use href="#E" transform="translate(33.569,-28.1762) rotate(231.4286) translate(60,438.1286)"/><use href="#E" transform="translate(33.569,-28.1762) rotate(231.4286) translate(20,438.1286)"/><use href="#E" transform="translate(33.569,-28.1762) rotate(231.4286) translate(-20,438.1286)"/><use href="#E" transform="translate(33.569,-28.1762) rotate(231.4286) translate(-60,438.1286)"/><use href="#E" transform="translate(33.569,-28.1762) rotate(231.4286) translate(-100,438.1286)"/></g></g><g><g stroke-dasharray="960 9999" stroke-dashoffset="960"><animate attributeName="stroke-dashoffset" from="960" to="0" begin="1.02s" dur="0.96s" repeatCount="1" fill="freeze"/><use href="#E" transform="translate(20,-0) rotate(257.1429) translate(0,0)"/></g><g stroke-dasharray="960 9999" stroke-dashoffset="960"><animate attributeName="stroke-dashoffset" from="960" to="0" begin="1.18s" dur="0.96s" repeatCount="1" fill="freeze"/><use href="#E" transform="translate(20,-0) rotate(257.1429) translate(20,87.6257)"/><use href="#E" transform="translate(20,-0) rotate(257.1429) translate(-20,87.6257)"/></g><g stroke-dasharray="960 9999" stroke-dashoffset="960"><animate attributeName="stroke-dashoffset" from="960" to="0" begin="1.34s" dur="0.96s" repeatCount="1" fill="freeze"/><use href="#E" transform="translate(20,-0) rotate(257.1429) translate(40,175.2515)"/><use href="#E" transform="translate(20,-0) rotate(257.1429) translate(0,175.2515)"/><use href="#E" transform="translate(20,-0) rotate(257.1429) translate(-40,175.2515)"/></g><g stroke-dasharray="960 9999" stroke-dashoffset="960"><animate attributeName="stroke-dashoffset" from="960" to="0" begin="1.5s" dur="0.96s" repeatCount="1" fill="freeze"/><use href="#E" transform="translate(20,-0) rotate(257.1429) translate(60,262.8772)"/><use href="#E" transform="translate(20,-0) rotate(257.1429) translate(20,262.8772)"/><use href="#E" transform="translate(20,-0) rotate(257.1429) translate(-20,262.8772)"/><use href="#E" transform="translate(20,-0) rotate(257.1429) translate(-60,262.8772)"/></g><g stroke-dasharray="960 9999" stroke-dashoffset="960"><animate attributeName="stroke-dashoffset" from="960" to="0" begin="1.66s" dur="0.96s" repeatCount="1" fill="freeze"/><use href="#E" transform="translate(20,-0) rotate(257.1429) translate(80,350.5029)"/><use href="#E" transform="translate(20,-0) rotate(257.1429) translate(40,350.5029)"/><use href="#E" transform="translate(20,-0) rotate(257.1429) translate(0,350.5029)"/><use href="#E" transform="translate(20,-0) rotate(257.1429) translate(-40,350.5029)"/><use href="#E" transform="translate(20,-0) rotate(257.1429) translate(-80,350.5029)"/></g><g stroke-dasharray="960 9999" stroke-dashoffset="960"><animate attributeName="stroke-dashoffset" from="960" to="0" begin="1.82s" dur="0.96s" repeatCount="1" fill="freeze"/><use href="#E" transform="translate(20,-0) rotate(257.1429) translate(100,438.1286)"/><use href="#E" transform="translate(20,-0) rotate(257.1429) translate(60,438.1286)"/><use href="#E" transform="translate(20,-0) rotate(257.1429) translate(20,438.1286)"/><use href="#E" transform="translate(20,-0) rotate(257.1429) translate(-20,438.1286)"/><use href="#E" transform="translate(20,-0) rotate(257.1429) translate(-60,438.1286)"/><use href="#E" transform="translate(20,-0) rotate(257.1429) translate(-100,438.1286)"/></g></g><g><g stroke-dasharray="960 9999" stroke-dashoffset="960"><animate attributeName="stroke-dashoffset" from="960" to="0" begin="1.12s" dur="0.96s" repeatCount="1" fill="freeze"/><use href="#E" transform="translate(85.4288,19.4986) rotate(282.8571) translate(0,0)"/></g><g stroke-dasharray="960 9999" stroke-dashoffset="960"><animate attributeName="stroke-dashoffset" from="960" to="0" begin="1.28s" dur="0.96s" repeatCount="1" fill="freeze"/><use href="#E" transform="translate(85.4288,19.4986) rotate(282.8571) translate(20,87.6257)"/><use href="#E" transform="translate(85.4288,19.4986) rotate(282.8571) translate(-20,87.6257)"/></g><g stroke-dasharray="960 9999" stroke-dashoffset="960"><animate attributeName="stroke-dashoffset" from="960" to="0" begin="1.44s" dur="0.96s" repeatCount="1" fill="freeze"/><use href="#E" transform="translate(85.4288,19.4986) rotate(282.8571) translate(40,175.2515)"/><use href="#E" transform="translate(85.4288,19.4986) rotate(282.8571) translate(0,175.2515)"/><use href="#E" transform="translate(85.4288,19.4986) rotate(282.8571) translate(-40,175.2515)"/></g><g stroke-dasharray="960 9999" stroke-dashoffset="960"><animate attributeName="stroke-dashoffset" from="960" to="0" begin="1.6s" dur="0.96s" repeatCount="1" fill="freeze"/><use href="#E" transform="translate(85.4288,19.4986) rotate(282.8571) translate(60,262.8772)"/><use href="#E" transform="translate(85.4288,19.4986) rotate(282.8571) translate(20,262.8772)"/><use href="#E" transform="translate(85.4288,19.4986) rotate(282.8571) translate(-20,262.8772)"/><use href="#E" transform="translate(85.4288,19.4986) rotate(282.8571) translate(-60,262.8772)"/></g><g stroke-dasharray="960 9999" stroke-dashoffset="960"><animate attributeName="stroke-dashoffset" from="960" to="0" begin="1.76s" dur="0.96s" repeatCount="1" fill="freeze"/><use href="#E" transform="translate(85.4288,19.4986) rotate(282.8571) translate(80,350.5029)"/><use href="#E" transform="translate(85.4288,19.4986) rotate(282.8571) translate(40,350.5029)"/><use href="#E" transform="translate(85.4288,19.4986) rotate(282.8571) translate(0,350.5029)"/><use href="#E" transform="translate(85.4288,19.4986) rotate(282.8571) translate(-40,350.5029)"/><use href="#E" transform="translate(85.4288,19.4986) rotate(282.8571) translate(-80,350.5029)"/></g><g stroke-dasharray="960 9999" stroke-dashoffset="960"><animate attributeName="stroke-dashoffset" from="960" to="0" begin="1.92s" dur="0.96s" repeatCount="1" fill="freeze"/><use href="#E" transform="translate(85.4288,19.4986) rotate(282.8571) translate(100,438.1286)"/><use href="#E" transform="translate(85.4288,19.4986) rotate(282.8571) translate(60,438.1286)"/><use href="#E" transform="translate(85.4288,19.4986) rotate(282.8571) translate(20,438.1286)"/><use href="#E" transform="translate(85.4288,19.4986) rotate(282.8571) translate(-20,438.1286)"/><use href="#E" transform="translate(85.4288,19.4986) rotate(282.8571) translate(-60,438.1286)"/><use href="#E" transform="translate(85.4288,19.4986) rotate(282.8571) translate(-100,438.1286)"/></g></g><g><g stroke-dasharray="960 9999" stroke-dashoffset="960"><animate attributeName="stroke-dashoffset" from="960" to="0" begin="1.08s" dur="0.96s" repeatCount="1" fill="freeze"/><use href="#E" transform="translate(54.9396,26.4575) rotate(308.5714) translate(0,0)"/></g><g stroke-dasharray="960 9999" stroke-dashoffset="960"><animate attributeName="stroke-dashoffset" from="960" to="0" begin="1.24s" dur="0.96s" repeatCount="1" fill="freeze"/><use href="#E" transform="translate(54.9396,26.4575) rotate(308.5714) translate(20,87.6257)"/><use href="#E" transform="translate(54.9396,26.4575) rotate(308.5714) translate(-20,87.6257)"/></g><g stroke-dasharray="960 9999" stroke-dashoffset="960"><animate attributeName="stroke-dashoffset" from="960" to="0" begin="1.4s" dur="0.96s" repeatCount="1" fill="freeze"/><use href="#E" transform="translate(54.9396,26.4575) rotate(308.5714) translate(40,175.2515)"/><use href="#E" transform="translate(54.9396,26.4575) rotate(308.5714) translate(0,175.2515)"/><use href="#E" transform="translate(54.9396,26.4575) rotate(308.5714) translate(-40,175.2515)"/></g><g stroke-dasharray="960 9999" stroke-dashoffset="960"><animate attributeName="stroke-dashoffset" from="960" to="0" begin="1.56s" dur="0.96s" repeatCount="1" fill="freeze"/><use href="#E" transform="translate(54.9396,26.4575) rotate(308.5714) translate(60,262.8772)"/><use href="#E" transform="translate(54.9396,26.4575) rotate(308.5714) translate(20,262.8772)"/><use href="#E" transform="translate(54.9396,26.4575) rotate(308.5714) translate(-20,262.8772)"/><use href="#E" transform="translate(54.9396,26.4575) rotate(308.5714) translate(-60,262.8772)"/></g><g stroke-dasharray="960 9999" stroke-dashoffset="960"><animate attributeName="stroke-dashoffset" from="960" to="0" begin="1.72s" dur="0.96s" repeatCount="1" fill="freeze"/><use href="#E" transform="translate(54.9396,26.4575) rotate(308.5714) translate(80,350.5029)"/><use href="#E" transform="translate(54.9396,26.4575) rotate(308.5714) translate(40,350.5029)"/><use href="#E" transform="translate(54.9396,26.4575) rotate(308.5714) translate(0,350.5029)"/><use href="#E" transform="translate(54.9396,26.4575) rotate(308.5714) translate(-40,350.5029)"/><use href="#E" transform="translate(54.9396,26.4575) rotate(308.5714) translate(-80,350.5029)"/></g><g stroke-dasharray="960 9999" stroke-dashoffset="960"><animate attributeName="stroke-dashoffset" from="960" to="0" begin="1.88s" dur="0.96s" repeatCount="1" fill="freeze"/><use href="#E" transform="translate(54.9396,26.4575) rotate(308.5714) translate(100,438.1286)"/><use href="#E" transform="translate(54.9396,26.4575) rotate(308.5714) translate(60,438.1286)"/><use href="#E" transform="translate(54.9396,26.4575) rotate(308.5714) translate(20,438.1286)"/><use href="#E" transform="translate(54.9396,26.4575) rotate(308.5714) translate(-20,438.1286)"/><use href="#E" transform="translate(54.9396,26.4575) rotate(308.5714) translate(-60,438.1286)"/><use href="#E" transform="translate(54.9396,26.4575) rotate(308.5714) translate(-100,438.1286)"/></g></g><g><g stroke-dasharray="960 9999" stroke-dashoffset="960"><animate attributeName="stroke-dashoffset" from="960" to="0" begin="1.04s" dur="0.96s" repeatCount="1" fill="freeze"/><use href="#E" transform="translate(24.4504,19.4986) rotate(334.2857) translate(0,0)"/></g><g stroke-dasharray="960 9999" stroke-dashoffset="960"><animate attributeName="stroke-dashoffset" from="960" to="0" begin="1.2s" dur="0.96s" repeatCount="1" fill="freeze"/><use href="#E" transform="translate(24.4504,19.4986) rotate(334.2857) translate(20,87.6257)"/><use href="#E" transform="translate(24.4504,19.4986) rotate(334.2857) translate(-20,87.6257)"/></g><g stroke-dasharray="960 9999" stroke-dashoffset="960"><animate attributeName="stroke-dashoffset" from="960" to="0" begin="1.36s" dur="0.96s" repeatCount="1" fill="freeze"/><use href="#E" transform="translate(24.4504,19.4986) rotate(334.2857) translate(40,175.2515)"/><use href="#E" transform="translate(24.4504,19.4986) rotate(334.2857) translate(0,175.2515)"/><use href="#E" transform="translate(24.4504,19.4986) rotate(334.2857) translate(-40,175.2515)"/></g><g stroke-dasharray="960 9999" stroke-dashoffset="960"><animate attributeName="stroke-dashoffset" from="960" to="0" begin="1.52s" dur="0.96s" repeatCount="1" fill="freeze"/><use href="#E" transform="translate(24.4504,19.4986) rotate(334.2857) translate(60,262.8772)"/><use href="#E" transform="translate(24.4504,19.4986) rotate(334.2857) translate(20,262.8772)"/><use href="#E" transform="translate(24.4504,19.4986) rotate(334.2857) translate(-20,262.8772)"/><use href="#E" transform="translate(24.4504,19.4986) rotate(334.2857) translate(-60,262.8772)"/></g><g stroke-dasharray="960 9999" stroke-dashoffset="960"><animate attributeName="stroke-dashoffset" from="960" to="0" begin="1.68s" dur="0.96s" repeatCount="1" fill="freeze"/><use href="#E" transform="translate(24.4504,19.4986) rotate(334.2857) translate(80,350.5029)"/><use href="#E" transform="translate(24.4504,19.4986) rotate(334.2857) translate(40,350.5029)"/><use href="#E" transform="translate(24.4504,19.4986) rotate(334.2857) translate(0,350.5029)"/><use href="#E" transform="translate(24.4504,19.4986) rotate(334.2857) translate(-40,350.5029)"/><use href="#E" transform="translate(24.4504,19.4986) rotate(334.2857) translate(-80,350.5029)"/></g><g stroke-dasharray="960 9999" stroke-dashoffset="960"><animate attributeName="stroke-dashoffset" from="960" to="0" begin="1.84s" dur="0.96s" repeatCount="1" fill="freeze"/><use href="#E" transform="translate(24.4504,19.4986) rotate(334.2857) translate(100,438.1286)"/><use href="#E" transform="translate(24.4504,19.4986) rotate(334.2857) translate(60,438.1286)"/><use href="#E" transform="translate(24.4504,19.4986) rotate(334.2857) translate(20,438.1286)"/><use href="#E" transform="translate(24.4504,19.4986) rotate(334.2857) translate(-20,438.1286)"/><use href="#E" transform="translate(24.4504,19.4986) rotate(334.2857) translate(-60,438.1286)"/><use href="#E" transform="translate(24.4504,19.4986) rotate(334.2857) translate(-100,438.1286)"/></g></g></g></g></svg>